<?xml version="1.0" encoding="utf-8" standalone="no"?>
<!DOCTYPE svg PUBLIC "-//W3C//DTD SVG 1.1//EN"
  "http://www.w3.org/Graphics/SVG/1.1/DTD/svg11.dtd">
<!-- Created with matplotlib (https://matplotlib.org/) -->
<svg height="588.24pt" version="1.1" viewBox="0 0 1053.36 588.24" width="1053.36pt" xmlns="http://www.w3.org/2000/svg" xmlns:xlink="http://www.w3.org/1999/xlink">
 <defs>
  <style type="text/css">
*{stroke-linecap:butt;stroke-linejoin:round;}
  </style>
 </defs>
 <g id="figure_1">
  <g id="patch_1">
   <path d="M 0 588.24 
L 1053.36 588.24 
L 1053.36 0 
L 0 0 
z
" style="fill:#ffffff;"/>
  </g>
  <g id="axes_1">
   <g id="patch_2">
    <path d="M 131.67 523.5336 
L 948.024 523.5336 
L 948.024 70.5888 
L 131.67 70.5888 
z
" style="fill:#ffffff;"/>
   </g>
   <g id="matplotlib.axis_1">
    <g id="xtick_1">
     <g id="line2d_1">
      <defs>
       <path d="M 0 0 
L 0 3.5 
" id="md84aa1395e" style="stroke:#000000;stroke-width:0.8;"/>
      </defs>
      <g>
       <use style="stroke:#000000;stroke-width:0.8;" x="282.205603" xlink:href="#md84aa1395e" y="523.5336"/>
      </g>
     </g>
     <g id="text_1">
      <!-- −100 -->
      <defs>
       <path d="M 10.59375 35.5 
L 73.1875 35.5 
L 73.1875 27.203125 
L 10.59375 27.203125 
z
" id="DejaVuSans-8722"/>
       <path d="M 12.40625 8.296875 
L 28.515625 8.296875 
L 28.515625 63.921875 
L 10.984375 60.40625 
L 10.984375 69.390625 
L 28.421875 72.90625 
L 38.28125 72.90625 
L 38.28125 8.296875 
L 54.390625 8.296875 
L 54.390625 0 
L 12.40625 0 
z
" id="DejaVuSans-49"/>
       <path d="M 31.78125 66.40625 
Q 24.171875 66.40625 20.328125 58.90625 
Q 16.5 51.421875 16.5 36.375 
Q 16.5 21.390625 20.328125 13.890625 
Q 24.171875 6.390625 31.78125 6.390625 
Q 39.453125 6.390625 43.28125 13.890625 
Q 47.125 21.390625 47.125 36.375 
Q 47.125 51.421875 43.28125 58.90625 
Q 39.453125 66.40625 31.78125 66.40625 
z
M 31.78125 74.21875 
Q 44.046875 74.21875 50.515625 64.515625 
Q 56.984375 54.828125 56.984375 36.375 
Q 56.984375 17.96875 50.515625 8.265625 
Q 44.046875 -1.421875 31.78125 -1.421875 
Q 19.53125 -1.421875 13.0625 8.265625 
Q 6.59375 17.96875 6.59375 36.375 
Q 6.59375 54.828125 13.0625 64.515625 
Q 19.53125 74.21875 31.78125 74.21875 
z
" id="DejaVuSans-48"/>
      </defs>
      <g transform="translate(268.472009 538.132038)scale(0.1 -0.1)">
       <use xlink:href="#DejaVuSans-8722"/>
       <use x="83.789062" xlink:href="#DejaVuSans-49"/>
       <use x="147.412109" xlink:href="#DejaVuSans-48"/>
       <use x="211.035156" xlink:href="#DejaVuSans-48"/>
      </g>
     </g>
    </g>
    <g id="xtick_2">
     <g id="line2d_2">
      <g>
       <use style="stroke:#000000;stroke-width:0.8;" x="437.887555" xlink:href="#md84aa1395e" y="523.5336"/>
      </g>
     </g>
     <g id="text_2">
      <!-- 0 -->
      <g transform="translate(434.706305 538.132038)scale(0.1 -0.1)">
       <use xlink:href="#DejaVuSans-48"/>
      </g>
     </g>
    </g>
    <g id="xtick_3">
     <g id="line2d_3">
      <g>
       <use style="stroke:#000000;stroke-width:0.8;" x="593.569507" xlink:href="#md84aa1395e" y="523.5336"/>
      </g>
     </g>
     <g id="text_3">
      <!-- 100 -->
      <g transform="translate(584.025757 538.132038)scale(0.1 -0.1)">
       <use xlink:href="#DejaVuSans-49"/>
       <use x="63.623047" xlink:href="#DejaVuSans-48"/>
       <use x="127.246094" xlink:href="#DejaVuSans-48"/>
      </g>
     </g>
    </g>
    <g id="xtick_4">
     <g id="line2d_4">
      <g>
       <use style="stroke:#000000;stroke-width:0.8;" x="749.251459" xlink:href="#md84aa1395e" y="523.5336"/>
      </g>
     </g>
     <g id="text_4">
      <!-- 200 -->
      <defs>
       <path d="M 19.1875 8.296875 
L 53.609375 8.296875 
L 53.609375 0 
L 7.328125 0 
L 7.328125 8.296875 
Q 12.9375 14.109375 22.625 23.890625 
Q 32.328125 33.6875 34.8125 36.53125 
Q 39.546875 41.84375 41.421875 45.53125 
Q 43.3125 49.21875 43.3125 52.78125 
Q 43.3125 58.59375 39.234375 62.25 
Q 35.15625 65.921875 28.609375 65.921875 
Q 23.96875 65.921875 18.8125 64.3125 
Q 13.671875 62.703125 7.8125 59.421875 
L 7.8125 69.390625 
Q 13.765625 71.78125 18.9375 73 
Q 24.125 74.21875 28.421875 74.21875 
Q 39.75 74.21875 46.484375 68.546875 
Q 53.21875 62.890625 53.21875 53.421875 
Q 53.21875 48.921875 51.53125 44.890625 
Q 49.859375 40.875 45.40625 35.40625 
Q 44.1875 33.984375 37.640625 27.21875 
Q 31.109375 20.453125 19.1875 8.296875 
z
" id="DejaVuSans-50"/>
      </defs>
      <g transform="translate(739.707709 538.132038)scale(0.1 -0.1)">
       <use xlink:href="#DejaVuSans-50"/>
       <use x="63.623047" xlink:href="#DejaVuSans-48"/>
       <use x="127.246094" xlink:href="#DejaVuSans-48"/>
      </g>
     </g>
    </g>
    <g id="xtick_5">
     <g id="line2d_5">
      <g>
       <use style="stroke:#000000;stroke-width:0.8;" x="904.933411" xlink:href="#md84aa1395e" y="523.5336"/>
      </g>
     </g>
     <g id="text_5">
      <!-- 300 -->
      <defs>
       <path d="M 40.578125 39.3125 
Q 47.65625 37.796875 51.625 33 
Q 55.609375 28.21875 55.609375 21.1875 
Q 55.609375 10.40625 48.1875 4.484375 
Q 40.765625 -1.421875 27.09375 -1.421875 
Q 22.515625 -1.421875 17.65625 -0.515625 
Q 12.796875 0.390625 7.625 2.203125 
L 7.625 11.71875 
Q 11.71875 9.328125 16.59375 8.109375 
Q 21.484375 6.890625 26.8125 6.890625 
Q 36.078125 6.890625 40.9375 10.546875 
Q 45.796875 14.203125 45.796875 21.1875 
Q 45.796875 27.640625 41.28125 31.265625 
Q 36.765625 34.90625 28.71875 34.90625 
L 20.21875 34.90625 
L 20.21875 43.015625 
L 29.109375 43.015625 
Q 36.375 43.015625 40.234375 45.921875 
Q 44.09375 48.828125 44.09375 54.296875 
Q 44.09375 59.90625 40.109375 62.90625 
Q 36.140625 65.921875 28.71875 65.921875 
Q 24.65625 65.921875 20.015625 65.03125 
Q 15.375 64.15625 9.8125 62.3125 
L 9.8125 71.09375 
Q 15.4375 72.65625 20.34375 73.4375 
Q 25.25 74.21875 29.59375 74.21875 
Q 40.828125 74.21875 47.359375 69.109375 
Q 53.90625 64.015625 53.90625 55.328125 
Q 53.90625 49.265625 50.4375 45.09375 
Q 46.96875 40.921875 40.578125 39.3125 
z
" id="DejaVuSans-51"/>
      </defs>
      <g transform="translate(895.389661 538.132038)scale(0.1 -0.1)">
       <use xlink:href="#DejaVuSans-51"/>
       <use x="63.623047" xlink:href="#DejaVuSans-48"/>
       <use x="127.246094" xlink:href="#DejaVuSans-48"/>
      </g>
     </g>
    </g>
   </g>
   <g id="matplotlib.axis_2">
    <g id="ytick_1">
     <g id="line2d_6">
      <defs>
       <path d="M 0 0 
L -3.5 0 
" id="m0869432e9d" style="stroke:#000000;stroke-width:0.8;"/>
      </defs>
      <g>
       <use style="stroke:#000000;stroke-width:0.8;" x="131.67" xlink:href="#m0869432e9d" y="511.050997"/>
      </g>
     </g>
     <g id="text_6">
      <!-- 700 -->
      <defs>
       <path d="M 8.203125 72.90625 
L 55.078125 72.90625 
L 55.078125 68.703125 
L 28.609375 0 
L 18.3125 0 
L 43.21875 64.59375 
L 8.203125 64.59375 
z
" id="DejaVuSans-55"/>
      </defs>
      <g transform="translate(105.5825 514.850216)scale(0.1 -0.1)">
       <use xlink:href="#DejaVuSans-55"/>
       <use x="63.623047" xlink:href="#DejaVuSans-48"/>
       <use x="127.246094" xlink:href="#DejaVuSans-48"/>
      </g>
     </g>
    </g>
    <g id="ytick_2">
     <g id="line2d_7">
      <g>
       <use style="stroke:#000000;stroke-width:0.8;" x="131.67" xlink:href="#m0869432e9d" y="448.138271"/>
      </g>
     </g>
     <g id="text_7">
      <!-- 750 -->
      <defs>
       <path d="M 10.796875 72.90625 
L 49.515625 72.90625 
L 49.515625 64.59375 
L 19.828125 64.59375 
L 19.828125 46.734375 
Q 21.96875 47.46875 24.109375 47.828125 
Q 26.265625 48.1875 28.421875 48.1875 
Q 40.625 48.1875 47.75 41.5 
Q 54.890625 34.8125 54.890625 23.390625 
Q 54.890625 11.625 47.5625 5.09375 
Q 40.234375 -1.421875 26.90625 -1.421875 
Q 22.3125 -1.421875 17.546875 -0.640625 
Q 12.796875 0.140625 7.71875 1.703125 
L 7.71875 11.625 
Q 12.109375 9.234375 16.796875 8.0625 
Q 21.484375 6.890625 26.703125 6.890625 
Q 35.15625 6.890625 40.078125 11.328125 
Q 45.015625 15.765625 45.015625 23.390625 
Q 45.015625 31 40.078125 35.4375 
Q 35.15625 39.890625 26.703125 39.890625 
Q 22.75 39.890625 18.8125 39.015625 
Q 14.890625 38.140625 10.796875 36.28125 
z
" id="DejaVuSans-53"/>
      </defs>
      <g transform="translate(105.5825 451.93749)scale(0.1 -0.1)">
       <use xlink:href="#DejaVuSans-55"/>
       <use x="63.623047" xlink:href="#DejaVuSans-53"/>
       <use x="127.246094" xlink:href="#DejaVuSans-48"/>
      </g>
     </g>
    </g>
    <g id="ytick_3">
     <g id="line2d_8">
      <g>
       <use style="stroke:#000000;stroke-width:0.8;" x="131.67" xlink:href="#m0869432e9d" y="385.225546"/>
      </g>
     </g>
     <g id="text_8">
      <!-- 800 -->
      <defs>
       <path d="M 31.78125 34.625 
Q 24.75 34.625 20.71875 30.859375 
Q 16.703125 27.09375 16.703125 20.515625 
Q 16.703125 13.921875 20.71875 10.15625 
Q 24.75 6.390625 31.78125 6.390625 
Q 38.8125 6.390625 42.859375 10.171875 
Q 46.921875 13.96875 46.921875 20.515625 
Q 46.921875 27.09375 42.890625 30.859375 
Q 38.875 34.625 31.78125 34.625 
z
M 21.921875 38.8125 
Q 15.578125 40.375 12.03125 44.71875 
Q 8.5 49.078125 8.5 55.328125 
Q 8.5 64.0625 14.71875 69.140625 
Q 20.953125 74.21875 31.78125 74.21875 
Q 42.671875 74.21875 48.875 69.140625 
Q 55.078125 64.0625 55.078125 55.328125 
Q 55.078125 49.078125 51.53125 44.71875 
Q 48 40.375 41.703125 38.8125 
Q 48.828125 37.15625 52.796875 32.3125 
Q 56.78125 27.484375 56.78125 20.515625 
Q 56.78125 9.90625 50.3125 4.234375 
Q 43.84375 -1.421875 31.78125 -1.421875 
Q 19.734375 -1.421875 13.25 4.234375 
Q 6.78125 9.90625 6.78125 20.515625 
Q 6.78125 27.484375 10.78125 32.3125 
Q 14.796875 37.15625 21.921875 38.8125 
z
M 18.3125 54.390625 
Q 18.3125 48.734375 21.84375 45.5625 
Q 25.390625 42.390625 31.78125 42.390625 
Q 38.140625 42.390625 41.71875 45.5625 
Q 45.3125 48.734375 45.3125 54.390625 
Q 45.3125 60.0625 41.71875 63.234375 
Q 38.140625 66.40625 31.78125 66.40625 
Q 25.390625 66.40625 21.84375 63.234375 
Q 18.3125 60.0625 18.3125 54.390625 
z
" id="DejaVuSans-56"/>
      </defs>
      <g transform="translate(105.5825 389.024764)scale(0.1 -0.1)">
       <use xlink:href="#DejaVuSans-56"/>
       <use x="63.623047" xlink:href="#DejaVuSans-48"/>
       <use x="127.246094" xlink:href="#DejaVuSans-48"/>
      </g>
     </g>
    </g>
    <g id="ytick_4">
     <g id="line2d_9">
      <g>
       <use style="stroke:#000000;stroke-width:0.8;" x="131.67" xlink:href="#m0869432e9d" y="322.31282"/>
      </g>
     </g>
     <g id="text_9">
      <!-- 850 -->
      <g transform="translate(105.5825 326.112039)scale(0.1 -0.1)">
       <use xlink:href="#DejaVuSans-56"/>
       <use x="63.623047" xlink:href="#DejaVuSans-53"/>
       <use x="127.246094" xlink:href="#DejaVuSans-48"/>
      </g>
     </g>
    </g>
    <g id="ytick_5">
     <g id="line2d_10">
      <g>
       <use style="stroke:#000000;stroke-width:0.8;" x="131.67" xlink:href="#m0869432e9d" y="259.400094"/>
      </g>
     </g>
     <g id="text_10">
      <!-- 900 -->
      <defs>
       <path d="M 10.984375 1.515625 
L 10.984375 10.5 
Q 14.703125 8.734375 18.5 7.8125 
Q 22.3125 6.890625 25.984375 6.890625 
Q 35.75 6.890625 40.890625 13.453125 
Q 46.046875 20.015625 46.78125 33.40625 
Q 43.953125 29.203125 39.59375 26.953125 
Q 35.25 24.703125 29.984375 24.703125 
Q 19.046875 24.703125 12.671875 31.3125 
Q 6.296875 37.9375 6.296875 49.421875 
Q 6.296875 60.640625 12.9375 67.421875 
Q 19.578125 74.21875 30.609375 74.21875 
Q 43.265625 74.21875 49.921875 64.515625 
Q 56.59375 54.828125 56.59375 36.375 
Q 56.59375 19.140625 48.40625 8.859375 
Q 40.234375 -1.421875 26.421875 -1.421875 
Q 22.703125 -1.421875 18.890625 -0.6875 
Q 15.09375 0.046875 10.984375 1.515625 
z
M 30.609375 32.421875 
Q 37.25 32.421875 41.125 36.953125 
Q 45.015625 41.5 45.015625 49.421875 
Q 45.015625 57.28125 41.125 61.84375 
Q 37.25 66.40625 30.609375 66.40625 
Q 23.96875 66.40625 20.09375 61.84375 
Q 16.21875 57.28125 16.21875 49.421875 
Q 16.21875 41.5 20.09375 36.953125 
Q 23.96875 32.421875 30.609375 32.421875 
z
" id="DejaVuSans-57"/>
      </defs>
      <g transform="translate(105.5825 263.199313)scale(0.1 -0.1)">
       <use xlink:href="#DejaVuSans-57"/>
       <use x="63.623047" xlink:href="#DejaVuSans-48"/>
       <use x="127.246094" xlink:href="#DejaVuSans-48"/>
      </g>
     </g>
    </g>
    <g id="ytick_6">
     <g id="line2d_11">
      <g>
       <use style="stroke:#000000;stroke-width:0.8;" x="131.67" xlink:href="#m0869432e9d" y="196.487368"/>
      </g>
     </g>
     <g id="text_11">
      <!-- 950 -->
      <g transform="translate(105.5825 200.286587)scale(0.1 -0.1)">
       <use xlink:href="#DejaVuSans-57"/>
       <use x="63.623047" xlink:href="#DejaVuSans-53"/>
       <use x="127.246094" xlink:href="#DejaVuSans-48"/>
      </g>
     </g>
    </g>
    <g id="ytick_7">
     <g id="line2d_12">
      <g>
       <use style="stroke:#000000;stroke-width:0.8;" x="131.67" xlink:href="#m0869432e9d" y="133.574643"/>
      </g>
     </g>
     <g id="text_12">
      <!-- 1000 -->
      <g transform="translate(99.22 137.373861)scale(0.1 -0.1)">
       <use xlink:href="#DejaVuSans-49"/>
       <use x="63.623047" xlink:href="#DejaVuSans-48"/>
       <use x="127.246094" xlink:href="#DejaVuSans-48"/>
       <use x="190.869141" xlink:href="#DejaVuSans-48"/>
      </g>
     </g>
    </g>
    <g id="ytick_8">
     <g id="line2d_13">
      <g>
       <use style="stroke:#000000;stroke-width:0.8;" x="131.67" xlink:href="#m0869432e9d" y="70.661917"/>
      </g>
     </g>
     <g id="text_13">
      <!-- 1050 -->
      <g transform="translate(99.22 74.461136)scale(0.1 -0.1)">
       <use xlink:href="#DejaVuSans-49"/>
       <use x="63.623047" xlink:href="#DejaVuSans-48"/>
       <use x="127.246094" xlink:href="#DejaVuSans-53"/>
       <use x="190.869141" xlink:href="#DejaVuSans-48"/>
      </g>
     </g>
    </g>
   </g>
   <g id="line2d_14">
    <path clip-path="url(#p73582e740d)" d="M 437.887565 259.525919 
L 388.115996 261.265703 
L 360.108775 262.016328 
L 336.761913 262.417487 
L 316.524053 262.547492 
L 302.513629 262.445581 
L 294.735809 262.198111 
L 286.97448 261.7224 
L 280.789839 261.1365 
L 274.644272 260.326539 
L 268.556191 259.269516 
L 259.490467 257.451258 
L 248.982666 255.117771 
L 243.045639 253.599804 
L 237.18914 251.889985 
L 231.444209 249.948985 
L 227.231408 248.319818 
L 223.12094 246.528099 
L 219.129011 244.569128 
L 215.26693 242.446922 
L 211.544564 240.167459 
L 207.971746 237.736698 
L 204.557928 235.160995 
L 201.312085 232.447144 
L 198.242724 229.602324 
L 195.357969 226.63399 
L 192.665426 223.549955 
L 190.172206 220.358329 
L 187.884815 217.067549 
L 185.809289 213.686271 
L 183.951079 210.223403 
L 182.315109 206.688052 
L 180.905672 203.08953 
L 179.726487 199.437311 
L 178.780636 195.741016 
L 178.070642 192.010371 
L 177.598406 188.255199 
L 177.365152 184.485391 
L 177.371424 180.710876 
L 177.617204 176.941588 
L 178.101924 173.187455 
L 178.824314 169.458365 
L 179.782448 165.764137 
L 180.973765 162.114491 
L 182.395159 158.519043 
L 184.042873 154.987255 
L 185.912585 151.528434 
L 187.999341 148.151674 
L 190.297663 144.865873 
L 192.801484 141.679673 
L 195.504266 138.601494 
L 198.398868 135.639429 
L 201.477683 132.801289 
L 204.732547 130.094505 
L 208.154909 127.526219 
L 211.735743 125.103175 
L 215.4657 122.831834 
L 219.334937 120.718159 
L 223.333168 118.767597 
L 227.449871 116.985271 
L 231.674592 115.376512 
L 235.995294 113.943877 
L 240.395708 112.679506 
L 246.358866 111.230838 
L 252.40204 110.017358 
L 258.500325 108.999279 
L 266.172072 107.935359 
L 276.955456 106.664781 
L 284.69353 105.985418 
L 290.909987 105.696585 
L 297.136593 105.641946 
L 304.916745 105.829544 
L 312.683172 106.249975 
L 323.530074 107.097352 
L 338.991831 108.565194 
L 362.18139 110.78735 
L 373.030312 111.617807 
L 387.006531 112.417688 
L 400.998971 113.001042 
L 411.89327 113.212374 
L 436.798757 113.505466 
L 444.567905 113.888638 
L 452.314042 114.507069 
L 463.124032 115.621001 
L 481.611761 117.788248 
L 489.26102 118.95219 
L 495.327605 120.08694 
L 501.322374 121.447842 
L 507.218847 123.064948 
L 512.998153 124.938095 
L 518.643405 127.061555 
L 524.137584 129.429748 
L 529.464519 132.035613 
L 534.609101 134.870735 
L 539.560847 137.922005 
L 544.339004 141.149284 
L 548.973116 144.511064 
L 554.595897 148.861398 
L 561.138687 154.24924 
L 574.14796 165.085094 
L 579.77411 169.432458 
L 584.441751 172.763647 
L 589.296624 175.914952 
L 593.070204 178.138981 
L 596.989313 180.191689 
L 601.03137 182.08226 
L 605.19893 183.785427 
L 609.492425 185.269959 
L 613.908377 186.497202 
L 616.915293 187.150186 
L 619.966059 187.653023 
L 623.051914 187.987827 
L 626.159425 188.144264 
L 629.272816 188.120077 
L 632.376097 187.91602 
L 635.453462 187.533562 
L 638.48925 186.974727 
L 641.467963 186.24224 
L 644.37427 185.339533 
L 647.192979 184.270671 
L 649.910244 183.042128 
L 652.517057 181.666086 
L 655.011749 180.160358 
L 658.545805 177.69348 
L 661.837406 175.016235 
L 664.899185 172.166229 
L 667.748185 169.175348 
L 670.385422 166.060489 
L 673.647583 161.773615 
L 677.472567 156.294557 
L 683.297288 147.39732 
L 687.705065 140.741419 
L 690.815075 136.381192 
L 694.119876 132.115703 
L 696.751332 128.997282 
L 699.543706 125.971736 
L 702.521451 123.06405 
L 705.697773 120.297082 
L 709.066437 117.682926 
L 712.611324 115.225648 
L 716.312356 112.92361 
L 720.150248 110.772877 
L 724.106968 108.76767 
L 729.538598 106.307001 
L 735.115243 104.067958 
L 740.803852 102.020899 
L 748.032527 99.687911 
L 756.810676 97.107774 
L 762.751469 95.600266 
L 767.279739 94.67718 
L 771.867303 93.970662 
L 776.495698 93.466946 
L 781.150369 93.159783 
L 785.818511 93.048696 
L 790.48762 93.129779 
L 795.144742 93.411393 
L 799.77573 93.899474 
L 807.444544 94.976428 
L 815.06212 96.269615 
L 822.624983 97.757877 
L 828.621224 99.115358 
L 834.546868 100.661828 
L 840.379201 102.424628 
L 846.093545 104.423772 
L 850.284484 106.089412 
L 854.378591 107.90551 
L 858.360677 109.877568 
L 862.214913 112.009069 
L 865.928816 114.297531 
L 869.492668 116.736877 
L 872.897052 119.320724 
L 876.132753 122.042471 
L 879.190899 124.89517 
L 882.063537 127.87117 
L 884.744353 130.961877 
L 887.227617 134.158576 
L 889.509611 137.451825 
L 891.593241 140.829889 
L 893.482571 144.281802 
L 895.179254 147.798477 
L 896.687682 151.370777 
L 898.016461 154.989399 
L 899.174484 158.646164 
L 900.46672 163.569281 
L 901.487351 168.533945 
L 902.253969 173.528427 
L 902.782989 178.543032 
L 903.088624 183.569792 
L 903.18513 188.602038 
L 903.087283 193.634292 
L 902.714857 199.918102 
L 902.092525 206.189033 
L 901.25087 212.443267 
L 899.995388 219.924095 
L 898.523773 227.379225 
L 896.324617 237.286974 
L 893.347106 249.637165 
L 886.367775 278.02142 
L 883.678504 290.414707 
L 880.689924 305.319222 
L 876.716995 326.467116 
L 870.884881 357.568196 
L 868.098994 371.224486 
L 865.853789 381.12546 
L 863.665245 389.753629 
L 861.580524 397.11258 
L 859.268997 404.427091 
L 857.147707 410.480103 
L 854.829679 416.485765 
L 852.280502 422.429851 
L 850.055699 427.130553 
L 847.652656 431.773562 
L 845.061818 436.350101 
L 842.2737 440.850242 
L 839.279049 445.262816 
L 836.068884 449.575238 
L 832.635134 453.773605 
L 828.970625 457.842501 
L 825.069308 461.764888 
L 820.926254 465.521805 
L 816.546445 469.098997 
L 811.942045 472.486957 
L 807.125836 475.676762 
L 802.110775 478.659685 
L 796.910385 481.427558 
L 791.538335 483.972274 
L 786.008397 486.285528 
L 780.337322 488.363703 
L 774.549361 490.219694 
L 768.668561 491.874321 
L 761.219939 493.70015 
L 752.190633 495.632877 
L 741.586003 497.660771 
L 732.438996 499.189934 
L 724.772352 500.277351 
L 717.059555 501.123575 
L 710.859368 501.590398 
L 703.088961 501.959538 
L 693.752637 502.190652 
L 681.298665 502.272754 
L 657.946827 502.171006 
L 629.927452 501.823944 
L 581.677989 500.957488 
L 536.539391 500.226403 
L 505.405053 499.945513 
L 477.382442 499.91272 
L 449.360761 500.100842 
L 418.229135 500.537029 
L 368.425262 501.502431 
L 332.626083 502.096317 
L 309.274922 502.269751 
L 295.264048 502.207095 
L 287.485202 501.982419 
L 281.273513 501.629338 
L 275.085315 501.069503 
L 268.943195 500.243247 
L 264.384852 499.421994 
L 256.858612 497.816862 
L 247.901331 495.676397 
L 241.990918 494.09206 
L 236.175294 492.2938 
L 231.904293 490.766874 
L 227.735895 489.064925 
L 223.697166 487.169879 
L 219.816129 485.070659 
L 216.111794 482.772338 
L 212.599311 480.285027 
L 209.293682 477.618951 
L 206.20794 474.785918 
L 203.345313 471.80374 
L 200.702413 468.691851 
L 198.27496 465.467304 
L 196.058072 462.145152 
L 194.046593 458.73865 
L 192.233027 455.260293 
L 190.607637 451.721667 
L 189.161961 448.132441 
L 187.889412 444.500632 
L 186.443618 439.605458 
L 185.245706 434.666659 
L 184.256577 429.697695 
L 183.46288 424.705879 
L 182.729403 418.442874 
L 182.258006 412.163375 
L 182.021279 405.875189 
L 181.989972 399.584102 
L 182.160742 393.294507 
L 182.554887 387.011505 
L 183.193501 380.741678 
L 184.095891 374.493098 
L 185.020818 369.516051 
L 186.134711 364.564367 
L 187.468467 359.648392 
L 189.054905 354.781747 
L 190.911888 349.978086 
L 192.494078 346.426662 
L 194.247244 342.928094 
L 196.177393 339.490941 
L 198.290351 336.124774 
L 200.59137 332.84016 
L 203.084902 329.648672 
L 205.774771 326.563122 
L 208.664225 323.59782 
L 211.75527 320.768461 
L 215.042098 318.087118 
L 218.513695 315.562457 
L 222.158351 313.20249 
L 225.964226 311.015069 
L 229.91886 309.007407 
L 234.009288 307.186121 
L 238.222042 305.557133 
L 242.543284 304.125759 
L 246.958863 302.89676 
L 251.45428 301.874157 
L 256.014783 301.061324 
L 260.625392 300.460886 
L 265.270982 300.07486 
L 269.936301 299.90449 
L 274.606036 299.950302 
L 279.264861 300.212176 
L 283.897484 300.689252 
L 288.488697 301.379985 
L 293.023437 302.282073 
L 297.48681 303.392588 
L 301.864159 304.707891 
L 306.141154 306.223592 
L 310.303741 307.934751 
L 314.338263 309.835749 
L 318.231431 311.920408 
L 321.9705 314.181837 
L 325.543176 316.61264 
L 328.937904 319.204682 
L 332.143398 321.949593 
L 335.148555 324.838758 
L 337.945006 327.861727 
L 340.538864 331.000537 
L 342.947798 334.234249 
L 345.911372 338.660358 
L 348.620702 343.19171 
L 351.115243 347.803084 
L 354.023524 353.638622 
L 363.707893 373.54423 
L 366.232109 378.145068 
L 368.950489 382.672948 
L 371.152643 386.001665 
L 373.56479 389.23374 
L 376.180528 392.360534 
L 379.018943 395.35776 
L 382.091795 398.19985 
L 385.40877 400.856487 
L 387.758948 402.50713 
L 390.221378 404.047166 
L 392.796015 405.462251 
L 395.477361 406.741348 
L 398.255225 407.877968 
L 401.118124 408.867191 
L 404.054352 409.704328 
L 407.051005 410.387377 
L 411.626437 411.141736 
L 416.258703 411.620127 
L 420.917765 411.880225 
L 427.14326 411.987356 
L 436.482826 411.870639 
L 442.698868 411.576239 
L 448.890927 411.044377 
L 456.591096 410.125253 
L 470.424879 408.331908 
L 476.615385 407.788789 
L 482.829952 407.472493 
L 489.055835 407.382634 
L 495.280419 407.519235 
L 501.491121 407.881751 
L 507.675348 408.469765 
L 513.820451 409.282687 
L 519.913845 410.319136 
L 525.943017 411.577223 
L 531.901245 413.039864 
L 539.265386 415.077695 
L 568.595983 423.520625 
L 580.448835 426.611158 
L 589.389264 428.797088 
L 595.410768 430.079396 
L 601.492287 431.160319 
L 606.094809 431.800737 
L 610.729446 432.265567 
L 615.386654 432.546761 
L 620.055286 432.644118 
L 624.724241 432.557455 
L 629.382411 432.286872 
L 634.018706 431.83297 
L 638.622105 431.196907 
L 643.181649 430.380167 
L 647.686502 429.38473 
L 652.125921 428.212897 
L 656.489353 426.867481 
L 660.766398 425.351659 
L 664.946917 423.669103 
L 669.020958 421.823804 
L 672.978844 419.82017 
L 676.811132 417.66293 
L 680.508722 415.357237 
L 684.062801 412.90856 
L 687.464892 410.322705 
L 690.706893 407.605824 
L 693.781094 404.764386 
L 696.680245 401.805198 
L 699.397423 398.735278 
L 701.926158 395.561929 
L 704.260388 392.292676 
L 706.394611 388.935324 
L 708.323709 385.497845 
L 710.043131 381.988431 
L 711.548739 378.415419 
L 712.837014 374.787327 
L 713.904857 371.112777 
L 714.749744 367.400516 
L 715.369613 363.659369 
L 715.763033 359.898243 
L 715.929063 356.126086 
L 715.867341 352.351873 
L 715.577984 348.584582 
L 715.061688 344.833175 
L 714.319645 341.106582 
L 713.353646 337.413668 
L 712.165975 333.76322 
L 710.759465 330.163925 
L 709.137463 326.624346 
L 707.303896 323.152881 
L 705.26311 319.757792 
L 703.019714 316.44726 
L 700.580209 313.2286 
L 697.956066 310.10623 
L 695.160571 307.082541 
L 692.206614 304.158899 
L 689.106867 301.335551 
L 684.768781 297.725246 
L 680.22259 294.286176 
L 675.495185 291.010496 
L 670.618152 287.881252 
L 665.575091 284.92927 
L 660.359219 282.180357 
L 654.989913 279.631644 
L 649.484705 277.279873 
L 643.860448 275.119849 
L 638.134201 273.142512 
L 632.321475 271.337417 
L 624.954822 269.305951 
L 617.496889 267.50492 
L 609.965888 265.914635 
L 602.377347 264.514141 
L 593.21529 263.044933 
L 582.476784 261.545695 
L 570.165199 260.025923 
L 557.814699 258.729284 
L 540.795817 257.197316 
L 531.477642 256.674186 
L 522.144707 256.367524 
L 511.248198 256.253548 
L 500.351498 256.361343 
L 487.904664 256.710471 
L 473.914508 257.330726 
L 455.280629 258.410122 
L 442.865593 259.211343 
L 442.865593 259.211343 
" style="fill:none;stroke:#ff0000;stroke-linecap:square;stroke-width:1.5;"/>
   </g>
   <g id="line2d_15">
    <path clip-path="url(#p73582e740d)" d="M 437.887555 259.400094 
L 265.08021 259.338921 
L 260.415954 259.125413 
L 255.770914 258.72735 
L 251.156714 258.133114 
L 246.58423 257.354654 
L 242.064396 256.398602 
L 237.608242 255.264674 
L 233.22663 253.953935 
L 228.930138 252.470237 
L 224.729193 250.817642 
L 220.633931 249.000105 
L 216.654335 247.021789 
L 212.800004 244.88757 
L 209.080358 242.602578 
L 205.504333 240.172434 
L 202.080646 237.60297 
L 198.817524 234.900469 
L 195.722931 232.071441 
L 192.804334 229.12276 
L 190.068868 226.061542 
L 187.52314 222.895213 
L 185.173298 219.631465 
L 183.025041 216.278203 
L 181.083543 212.84357 
L 179.35357 209.33586 
L 177.839249 205.763602 
L 176.544339 202.135425 
L 175.471867 198.46015 
L 174.624539 194.74666 
L 174.004328 191.003973 
L 173.612878 187.241145 
L 173.45098 183.467304 
L 173.51907 179.691597 
L 173.816924 175.923172 
L 174.343957 172.17117 
L 175.098838 168.444675 
L 176.079733 164.752727 
L 177.284239 161.104265 
L 178.709441 157.508136 
L 180.351917 153.973058 
L 182.207634 150.507587 
L 184.272152 147.120139 
L 186.540385 143.818892 
L 189.006927 140.611884 
L 191.665729 137.506855 
L 194.51046 134.511393 
L 197.534112 131.63269 
L 200.729422 128.877771 
L 204.088565 126.253244 
L 207.603469 123.765529 
L 211.265578 121.420617 
L 215.06607 119.224261 
L 218.995707 117.181735 
L 223.044959 115.297976 
L 227.204004 113.577559 
L 231.46275 112.024713 
L 235.810906 110.64316 
L 240.237936 109.43598 
L 244.733122 108.406298 
L 249.285451 107.557387 
L 253.883933 106.891218 
L 258.517724 106.406323 
L 263.175672 106.103406 
L 267.845375 105.993466 
L 272.514909 106.082551 
L 278.72773 106.448239 
L 297.306706 108.030003 
L 384.020714 115.318148 
L 393.338243 115.852956 
L 404.22601 116.235944 
L 415.122662 116.367517 
L 426.019226 116.243901 
L 436.90903 115.881712 
L 446.222891 115.325317 
L 461.742831 114.302143 
L 467.966898 114.160321 
L 472.63698 114.245133 
L 478.85196 114.606544 
L 485.034901 115.226968 
L 491.168595 116.102873 
L 497.236949 117.23898 
L 503.223243 118.632542 
L 509.11065 120.278001 
L 514.883201 122.170414 
L 520.525166 124.304989 
L 526.020244 126.676403 
L 531.352616 129.278559 
L 536.510592 132.101925 
L 541.481906 135.137262 
L 545.073353 137.55264 
L 548.534414 140.088043 
L 552.955466 143.63444 
L 557.197616 147.320712 
L 593.694545 180.020299 
L 595.959406 181.746718 
L 598.364915 183.344953 
L 600.893179 184.813685 
L 603.535727 186.144776 
L 606.280481 187.333011 
L 609.115743 188.373239 
L 612.02931 189.260931 
L 615.008643 189.992266 
L 618.040901 190.564112 
L 621.113045 190.973953 
L 624.211821 191.220152 
L 627.323903 191.301594 
L 630.435888 191.217776 
L 633.534377 190.969232 
L 636.606038 190.557034 
L 639.637626 189.982869 
L 642.616103 189.249263 
L 645.528634 188.35935 
L 648.36267 187.316952 
L 651.106072 186.126651 
L 653.746934 184.793448 
L 656.273915 183.323106 
L 658.676158 181.722013 
L 660.943319 179.997026 
L 663.065664 178.155634 
L 665.033986 176.205649 
L 666.839738 174.155533 
L 668.475611 172.014217 
L 669.933885 169.790709 
L 671.804882 166.332172 
L 682.873627 144.162344 
L 685.854505 138.35013 
L 687.864195 134.941656 
L 690.104437 131.628713 
L 692.575997 128.423851 
L 695.259209 125.332329 
L 698.144989 122.363004 
L 701.227963 119.525941 
L 704.498841 116.829584 
L 707.947105 114.281778 
L 711.562415 111.890081 
L 715.334214 109.66178 
L 719.251135 107.603546 
L 723.301462 105.721561 
L 727.473025 104.021123 
L 731.753397 102.507541 
L 736.129787 101.186359 
L 740.589076 100.060595 
L 745.117725 99.129662 
L 749.702422 98.401335 
L 754.329934 97.890937 
L 760.534756 97.459974 
L 807.138389 94.964503 
L 811.813008 94.980309 
L 816.48044 95.172205 
L 821.129594 95.557902 
L 825.74924 96.137313 
L 830.328094 96.903422 
L 834.854899 97.849467 
L 839.31871 98.971878 
L 843.708789 100.269172 
L 848.01441 101.739845 
L 852.225134 103.380929 
L 856.330827 105.187886 
L 860.321373 107.156093 
L 864.187034 109.280672 
L 867.918742 111.556289 
L 871.507496 113.977563 
L 874.944416 116.538873 
L 878.220995 119.23387 
L 881.328791 122.056071 
L 884.259819 124.998824 
L 887.008507 128.054593 
L 889.570076 131.215549 
L 891.939309 134.473927 
L 894.10673 137.82255 
L 896.060476 141.254575 
L 897.789497 144.762986 
L 899.299647 148.337252 
L 900.612419 151.963581 
L 902.093501 156.856104 
L 903.305162 161.795006 
L 904.280875 166.76879 
L 905.053506 171.766436 
L 905.640684 176.779532 
L 906.035304 181.803904 
L 906.227998 186.835761 
L 906.211984 191.870738 
L 905.987586 196.902886 
L 905.556346 201.925984 
L 904.920225 206.934138 
L 904.083231 211.923043 
L 903.049988 216.888873 
L 901.823801 221.827328 
L 900.396339 226.729925 
L 898.753218 231.586011 
L 896.883591 236.386048 
L 893.788299 243.510072 
L 890.171926 251.820038 
L 888.306041 256.621134 
L 886.660354 261.47639 
L 885.222114 266.374958 
L 883.68436 272.542929 
L 882.380766 278.745572 
L 865.82991 363.254726 
L 855.046406 417.928384 
L 853.731811 422.852495 
L 852.554083 426.50949 
L 851.206832 430.127821 
L 849.686792 433.700899 
L 847.996603 437.223723 
L 846.140505 440.691727 
L 844.122737 444.100345 
L 841.947427 447.444991 
L 838.80772 451.796875 
L 835.401173 456.015415 
L 831.735106 460.089387 
L 827.818491 464.00829 
L 823.661905 467.762327 
L 819.276005 471.341746 
L 814.672032 474.737471 
L 809.861975 477.941298 
L 804.85788 480.94508 
L 799.672322 483.740858 
L 794.318788 486.320997 
L 788.810859 488.677899 
L 783.162453 490.805604 
L 777.388278 492.701962 
L 771.503155 494.365361 
L 765.521954 495.791326 
L 759.459707 496.966247 
L 753.331476 497.874698 
L 747.152689 498.510419 
L 740.94039 498.907605 
L 733.154526 499.137755 
L 723.81303 499.158496 
L 700.461545 499.129538 
L 477.83641 499.127526 
L 258.32388 499.040907 
L 253.662608 498.75909 
L 249.031591 498.255784 
L 244.449833 497.50953 
L 239.934278 496.529113 
L 235.50158 495.327051 
L 231.168343 493.910216 
L 226.951133 492.281589 
L 222.866189 490.445223 
L 218.928752 488.408657 
L 215.153836 486.180118 
L 211.555719 483.768294 
L 208.148014 481.182285 
L 204.943932 478.431502 
L 201.955121 475.526589 
L 199.192812 472.478522 
L 196.667835 469.298822 
L 194.39055 465.999651 
L 192.370406 462.593343 
L 190.611888 459.092989 
L 189.117855 455.511944 
L 187.897334 451.863631 
L 186.968834 448.161567 
L 186.345643 444.419469 
L 185.994382 440.652525 
L 185.859727 436.87657 
L 185.873211 423.036016 
L 185.976333 362.639871 
L 186.304112 358.873497 
L 186.894034 355.128024 
L 187.744199 351.414643 
L 188.841826 347.744171 
L 190.184329 344.127604 
L 191.770369 340.575868 
L 193.594675 337.099539 
L 195.651223 333.709016 
L 197.933975 330.414445 
L 200.43634 327.225723 
L 203.150687 324.152348 
L 206.068885 321.203525 
L 209.182212 318.388081 
L 212.481398 315.714459 
L 215.95655 313.190663 
L 219.597257 310.824225 
L 223.392613 308.622219 
L 227.331255 306.59122 
L 231.401443 304.737378 
L 235.590965 303.066176 
L 239.887283 301.582625 
L 244.277523 300.291123 
L 248.748597 299.195647 
L 253.287094 298.299384 
L 257.879447 297.605071 
L 262.511894 297.11472 
L 267.170594 296.829902 
L 271.841594 296.751352 
L 276.51092 296.879362 
L 281.164598 297.213508 
L 285.788699 297.752882 
L 290.369397 298.495782 
L 294.892977 299.440028 
L 299.345892 300.582789 
L 303.714818 301.920673 
L 307.986722 303.449588 
L 312.148817 305.164972 
L 316.188586 307.06177 
L 320.093968 309.134299 
L 323.853322 311.376307 
L 327.455364 313.781084 
L 330.889152 316.341536 
L 334.144695 319.049892 
L 337.212458 321.897986 
L 340.082407 324.877506 
L 342.745241 327.979768 
L 345.196909 331.194377 
L 347.43139 334.511368 
L 349.426565 337.925096 
L 351.17533 341.425677 
L 353.224316 346.179876 
L 370.143099 388.040355 
L 371.377723 390.350595 
L 372.778922 392.59773 
L 374.343765 394.773255 
L 376.066235 396.869518 
L 377.94033 398.879027 
L 379.959287 400.794681 
L 382.115962 402.609645 
L 384.402715 404.317431 
L 386.811358 405.912012 
L 389.333316 407.387719 
L 391.959656 408.73927 
L 394.681043 409.961833 
L 397.487783 411.051074 
L 400.369849 412.003193 
L 403.317044 412.81469 
L 406.318871 413.4827 
L 409.364616 414.004938 
L 412.443478 414.379421 
L 415.544476 414.605025 
L 418.656601 414.680653 
L 421.768775 414.606305 
L 424.869905 414.381961 
L 427.949058 414.008864 
L 430.994876 413.487335 
L 433.998091 412.822582 
L 439.873839 411.153874 
L 447.261702 409.166072 
L 453.25207 407.791566 
L 459.319829 406.652953 
L 465.447864 405.740224 
L 471.617937 405.04079 
L 477.818091 404.555539 
L 484.038487 404.289883 
L 490.267936 404.246071 
L 496.493897 404.423157 
L 502.704054 404.820024 
L 508.886944 405.43547 
L 515.03114 406.268339 
L 521.124061 407.31811 
L 527.152509 408.584569 
L 533.106012 410.063938 
L 538.9785 411.746692 
L 544.760812 413.627078 
L 550.426352 415.720785 
L 555.945635 418.047011 
L 562.675964 421.209028 
L 573.396531 426.340341 
L 577.554584 428.05651 
L 581.826303 429.587837 
L 586.185136 430.952297 
L 590.612959 432.157512 
L 595.103991 433.195934 
L 599.651674 434.061114 
L 604.245296 434.752083 
L 608.873694 435.26857 
L 613.526679 435.609532 
L 618.194349 435.773758 
L 622.866507 435.760858 
L 627.532787 435.57095 
L 632.182898 435.204483 
L 636.806633 434.662268 
L 641.393834 433.945405 
L 645.934428 433.055567 
L 650.418398 431.994624 
L 654.835911 430.764986 
L 659.177209 429.369262 
L 663.43279 427.810594 
L 667.593287 426.09241 
L 671.649567 424.218501 
L 675.592717 422.192999 
L 679.414034 420.020302 
L 683.105166 417.70525 
L 686.657925 415.252855 
L 690.064554 412.668569 
L 693.317464 409.957995 
L 696.409597 407.127159 
L 699.33414 404.182286 
L 702.084691 401.129862 
L 704.655177 397.976588 
L 707.039896 394.729365 
L 709.233678 391.395372 
L 711.231615 387.981905 
L 713.029414 384.496509 
L 714.623008 380.946811 
L 716.009005 377.340646 
L 717.184293 373.68593 
L 718.146331 369.990704 
L 718.892964 366.263093 
L 719.422525 362.511283 
L 719.733928 358.743538 
L 719.826414 354.968136 
L 719.699891 351.193379 
L 719.354513 347.427568 
L 718.791141 343.678978 
L 718.010903 339.955864 
L 717.015581 336.266401 
L 715.807339 332.618712 
L 714.388841 329.020811 
L 712.76326 325.480601 
L 710.934103 322.005879 
L 708.905465 318.60426 
L 706.681681 315.283269 
L 704.26774 312.050184 
L 701.668862 308.912176 
L 698.89087 305.876031 
L 695.939877 302.948361 
L 692.822302 300.13576 
L 689.544835 297.444796 
L 686.114776 294.881111 
L 682.540371 292.448893 
L 678.829396 290.153599 
L 674.987985 288.004853 
L 669.700342 285.346348 
L 662.944675 282.217362 
L 656.051421 279.286739 
L 649.03765 276.548196 
L 641.916379 273.999974 
L 634.694124 271.647564 
L 627.376826 269.49709 
L 619.97159 267.552264 
L 612.487724 265.812219 
L 604.934781 264.27559 
L 597.321922 262.94473 
L 589.657417 261.830389 
L 581.949415 260.944453 
L 574.20687 260.286751 
L 564.885917 259.752188 
L 555.550805 259.437779 
L 547.767548 259.391371 
L 518.187819 259.400024 
L 438.790022 259.400094 
L 438.790022 259.400094 
" style="fill:none;stroke:#0000ff;stroke-linecap:square;stroke-width:1.5;"/>
   </g>
   <g id="line2d_16">
    <path clip-path="url(#p73582e740d)" d="M 437.887545 259.271401 
L 364.728052 258.249261 
L 318.036518 257.359052 
L 262.014951 256.065373 
L 257.36448 255.71965 
L 252.744483 255.168109 
L 248.166435 254.42213 
L 243.640681 253.490755 
L 239.179592 252.374058 
L 234.795659 251.072981 
L 230.500211 249.5916 
L 226.304328 247.934268 
L 222.219074 246.105285 
L 218.255335 244.109268 
L 214.423501 241.951544 
L 210.733703 239.637752 
L 207.195582 237.174062 
L 203.818515 234.566903 
L 200.611308 231.823212 
L 197.582495 228.950143 
L 194.739982 225.955307 
L 192.091369 222.846522 
L 189.643519 219.632038 
L 187.402943 216.320286 
L 185.375449 212.920025 
L 183.566472 209.44017 
L 181.98069 205.889912 
L 180.622377 202.27857 
L 179.495007 198.615679 
L 178.601634 194.910865 
L 177.944544 191.173894 
L 177.525599 187.414594 
L 177.345769 183.642874 
L 177.405543 179.868664 
L 177.704715 176.101898 
L 178.24264 172.352502 
L 179.017835 168.630345 
L 180.028271 164.945231 
L 181.271231 161.306852 
L 182.743499 157.724802 
L 184.441161 154.208501 
L 186.359774 150.767218 
L 188.494251 147.409998 
L 190.83899 144.14569 
L 193.387813 140.982884 
L 196.134048 137.929931 
L 199.070459 134.99487 
L 202.189281 132.185409 
L 205.482302 129.508943 
L 208.940832 126.972504 
L 212.5558 124.582796 
L 216.317688 122.346118 
L 220.216613 120.268386 
L 224.242254 118.355006 
L 228.384036 116.611045 
L 232.631065 115.041121 
L 236.972162 113.649375 
L 241.395777 112.439201 
L 245.890354 111.413963 
L 250.444298 110.577187 
L 255.045464 109.93078 
L 259.681156 109.472953 
L 264.339602 109.206007 
L 269.009045 109.143583 
L 273.676058 109.283037 
L 281.449941 109.596891 
L 387.256039 112.386798 
L 402.801553 113.05288 
L 421.470016 113.600517 
L 432.340017 114.225287 
L 441.635278 114.968284 
L 466.386398 117.204086 
L 478.818732 117.76513 
L 484.995094 118.404015 
L 491.120665 119.307328 
L 497.176091 120.479495 
L 503.143487 121.916648 
L 509.005762 123.613039 
L 514.745809 125.563447 
L 520.346524 127.762591 
L 525.790809 130.204887 
L 531.062747 132.882827 
L 536.149996 135.784774 
L 539.834829 138.103887 
L 543.394369 140.547413 
L 546.813217 143.118665 
L 550.207857 145.710948 
L 556.065617 149.853763 
L 595.14265 176.809913 
L 599.73398 180.208094 
L 602.213177 181.730379 
L 604.820985 183.105195 
L 607.543579 184.325991 
L 610.367101 185.38653 
L 613.277141 186.281343 
L 616.258836 187.005863 
L 619.296951 187.556374 
L 622.375964 187.930063 
L 625.48013 188.12514 
L 628.593606 188.140446 
L 631.700477 187.975892 
L 634.784882 187.632477 
L 637.831054 187.111856 
L 640.823426 186.416687 
L 643.746716 185.550543 
L 646.585971 184.517814 
L 649.326757 183.323885 
L 651.954954 181.9747 
L 654.45722 180.477246 
L 656.820703 178.839119 
L 659.033481 177.068819 
L 661.084012 175.175197 
L 662.962425 173.168274 
L 664.655317 171.056547 
L 669.368897 164.54042 
L 689.460504 139.080673 
L 691.711543 135.773854 
L 694.002198 132.484666 
L 696.529146 129.310487 
L 699.273913 126.256737 
L 702.229304 123.334229 
L 705.38774 120.553913 
L 708.738139 117.924465 
L 712.269175 115.454238 
L 715.969429 113.151481 
L 719.826805 111.023804 
L 723.828673 109.078242 
L 727.961724 107.320936 
L 732.212402 105.757624 
L 736.567185 104.394281 
L 741.011668 103.235321 
L 745.529847 102.280421 
L 750.108163 101.535996 
L 754.734227 101.019527 
L 760.938659 100.591358 
L 805.9826 98.132257 
L 810.652728 98.106757 
L 815.319095 98.259046 
L 819.968898 98.610628 
L 824.588351 99.165183 
L 829.16548 99.914792 
L 833.689399 100.851983 
L 838.148911 101.972812 
L 842.532015 103.275722 
L 846.826469 104.758975 
L 851.020701 106.419032 
L 855.103941 108.250951 
L 859.065488 110.249808 
L 862.895007 112.410217 
L 866.582606 114.7263 
L 870.118431 117.192142 
L 873.493026 119.80139 
L 876.697432 122.547218 
L 879.722629 125.422771 
L 882.56085 128.420266 
L 885.206413 131.530753 
L 887.654029 134.745365 
L 889.896122 138.056445 
L 891.920715 141.457814 
L 893.714661 144.942703 
L 895.27625 148.499967 
L 896.62712 152.113198 
L 897.792566 155.768412 
L 899.095601 160.68969 
L 900.14515 165.65047 
L 900.976663 170.63825 
L 901.617575 175.644393 
L 902.065212 180.664228 
L 902.309449 185.693195 
L 902.341661 190.725957 
L 902.160883 195.756669 
L 901.76876 200.779516 
L 901.167061 205.788804 
L 900.359707 210.77917 
L 899.351864 215.745672 
L 898.148833 220.68374 
L 896.215662 228.069238 
L 895.198525 233.034423 
L 894.196153 239.273121 
L 891.772195 255.511775 
L 890.737548 260.474614 
L 889.47971 265.403665 
L 887.874605 271.559458 
L 885.177233 282.67158 
L 872.059133 334.4438 
L 851.285235 417.057729 
L 850.341453 420.754417 
L 849.225861 424.419786 
L 847.937344 428.047912 
L 846.471235 431.631713 
L 844.828408 435.165093 
L 843.013484 438.643035 
L 841.031035 442.060718 
L 838.885471 445.413438 
L 836.580486 448.696311 
L 834.119316 451.90427 
L 831.505217 455.032206 
L 828.741555 458.074998 
L 825.832531 461.027953 
L 821.735909 464.817982 
L 817.400488 468.430322 
L 812.837974 471.855097 
L 808.061196 475.083402 
L 803.083104 478.106504 
L 797.916942 480.915936 
L 792.576534 483.503795 
L 787.075818 485.862123 
L 781.429813 487.984364 
L 775.65558 489.867832 
L 769.769964 491.510761 
L 763.788028 492.908006 
L 757.722331 494.044949 
L 751.587238 494.904609 
L 745.40225 495.486437 
L 739.190116 495.83306 
L 731.409527 496.010485 
L 718.960824 496.315173 
L 694.061554 496.879387 
L 648.927279 497.768951 
L 608.456477 498.35203 
L 566.425037 498.730927 
L 519.721107 498.920919 
L 469.902946 498.903792 
L 423.199262 498.678239 
L 381.168354 498.262669 
L 340.698333 497.645034 
L 295.564853 496.729067 
L 255.109973 495.711244 
L 250.473871 495.257614 
L 245.886927 494.549391 
L 241.369429 493.592872 
L 236.937815 492.402402 
L 232.609247 490.98578 
L 228.402865 489.346282 
L 224.337461 487.488945 
L 220.429737 485.422315 
L 216.695885 483.155409 
L 213.151389 480.697942 
L 209.811361 478.06002 
L 206.690035 475.252579 
L 203.800051 472.28776 
L 201.15372 469.17789 
L 198.762482 465.935868 
L 196.637555 462.574872 
L 194.786676 459.109598 
L 193.213199 455.555906 
L 191.923526 451.928322 
L 190.936195 448.239317 
L 190.270552 444.503559 
L 189.897323 440.741159 
L 189.753527 436.968369 
L 189.741261 421.869329 
L 189.808578 363.989921 
L 190.062444 360.220958 
L 190.580907 356.469878 
L 191.375703 352.750491 
L 192.431441 349.073735 
L 193.74355 345.451317 
L 195.310885 341.89578 
L 197.127963 338.418751 
L 199.188216 335.031446 
L 201.485019 331.745023 
L 204.011015 328.570351 
L 206.757796 325.517797 
L 209.716322 322.597358 
L 212.876945 319.818665 
L 216.229268 317.19082 
L 219.762329 314.722486 
L 223.464454 312.421694 
L 227.323534 310.296036 
L 231.326881 308.352463 
L 235.461408 306.597427 
L 239.713482 305.036598 
L 244.06916 303.67511 
L 248.514167 302.517478 
L 253.03391 301.567495 
L 257.613549 300.828277 
L 262.238045 300.302207 
L 266.892233 299.991108 
L 271.560826 299.895892 
L 276.228503 300.016919 
L 280.879948 300.353756 
L 285.499883 300.905384 
L 290.073156 301.669915 
L 294.584753 302.644862 
L 299.019848 303.827067 
L 303.363903 305.2126 
L 307.602678 306.796883 
L 311.722274 308.574706 
L 315.709071 310.540375 
L 319.550075 312.687313 
L 323.232663 315.008495 
L 326.744696 317.496353 
L 330.074601 320.142753 
L 333.2118 322.938734 
L 336.145659 325.875379 
L 338.86545 328.943675 
L 341.364677 332.132173 
L 343.638503 335.429018 
L 345.66601 338.829114 
L 350.046263 346.892501 
L 374.208669 387.75958 
L 375.517994 390.042651 
L 377.006464 392.252913 
L 378.668078 394.381064 
L 380.495871 396.418263 
L 382.482237 398.356078 
L 384.618904 400.186465 
L 386.897063 401.901771 
L 389.307182 403.494931 
L 391.839255 404.95932 
L 394.482798 406.288827 
L 397.226844 407.477894 
L 400.059955 408.521642 
L 402.970354 409.415757 
L 405.946012 410.156383 
L 408.974498 410.740619 
L 412.043267 411.165924 
L 415.139562 411.43066 
L 418.250483 411.533441 
L 421.363329 411.474979 
L 424.46421 411.2503 
L 430.642958 410.627718 
L 435.311635 410.534217 
L 452.427646 410.146899 
L 458.629811 409.699592 
L 464.798037 409.011514 
L 470.958055 408.275252 
L 477.151348 407.753077 
L 483.367326 407.455512 
L 489.593603 407.385887 
L 495.817434 407.543295 
L 502.02623 407.926558 
L 508.207528 408.534389 
L 514.34891 409.365503 
L 520.437707 410.419443 
L 526.460849 411.696227 
L 532.406657 413.191237 
L 538.266983 414.892684 
L 551.363529 418.908033 
L 557.325858 420.359761 
L 570.854212 423.307171 
L 576.827207 424.729529 
L 581.231757 425.98434 
L 588.481095 428.27331 
L 592.923236 429.438217 
L 597.430414 430.426737 
L 601.992498 431.234161 
L 606.597965 431.860373 
L 611.235653 432.304891 
L 615.894622 432.566339 
L 620.563827 432.643686 
L 625.232143 432.536912 
L 629.888464 432.246274 
L 634.521721 431.772542 
L 639.120872 431.116714 
L 643.674991 430.280434 
L 648.173226 429.265638 
L 652.604889 428.074779 
L 656.95941 426.710637 
L 661.226438 425.176484 
L 665.395841 423.476006 
L 669.457699 421.613246 
L 673.402367 419.592656 
L 677.220416 417.418986 
L 680.902816 415.097468 
L 684.440733 412.63355 
L 687.825804 410.033145 
L 691.049874 407.302362 
L 694.105384 404.447785 
L 696.985029 401.476181 
L 699.682018 398.394654 
L 702.189838 395.210481 
L 704.502569 391.931263 
L 706.614683 388.564791 
L 708.521173 385.119082 
L 710.217503 381.602335 
L 711.699605 378.022909 
L 712.964031 374.38934 
L 714.007698 370.710256 
L 714.828192 366.994423 
L 715.423445 363.250665 
L 715.792164 359.487905 
L 715.933383 355.715088 
L 715.846881 351.941192 
L 715.532752 348.175197 
L 714.991827 344.426058 
L 714.225297 340.702705 
L 713.235038 337.01399 
L 712.023387 333.368694 
L 710.593241 329.775488 
L 708.948042 326.242909 
L 707.091661 322.779374 
L 705.028553 319.393109 
L 702.763534 316.092208 
L 700.302062 312.884498 
L 697.649906 309.777657 
L 694.813574 306.778965 
L 691.79976 303.895578 
L 688.615425 301.134508 
L 685.267832 298.502605 
L 681.765871 296.005353 
L 678.118879 293.647595 
L 674.333264 291.437169 
L 670.41612 289.38191 
L 663.722627 286.171024 
L 656.884463 283.165789 
L 649.918532 280.358702 
L 642.838836 277.744106 
L 635.653131 275.325811 
L 628.367942 273.110496 
L 620.990806 271.103767 
L 613.531679 269.30586 
L 606.000795 267.715276 
L 598.407443 266.332261 
L 590.758586 265.16618 
L 583.061635 264.229557 
L 575.326429 263.528143 
L 567.566725 263.03295 
L 558.237825 262.653854 
L 443.097154 259.558481 
L 443.097154 259.558481 
" style="fill:none;stroke:#008000;stroke-linecap:square;stroke-width:1.5;"/>
   </g>
   <g id="line2d_17">
    <path clip-path="url(#p73582e740d)" d="M 437.887852 263.174858 
L 265.080516 263.116015 
L 258.863821 262.806378 
L 254.224417 262.365282 
L 249.616398 261.73939 
L 245.049635 260.939492 
L 240.534079 259.970335 
L 236.079746 258.831591 
L 231.696492 257.524351 
L 227.393926 256.052108 
L 223.181546 254.418536 
L 219.068571 252.627237 
L 215.064116 250.68191 
L 211.176953 248.586889 
L 207.4157 246.346767 
L 203.788603 243.96652 
L 200.303643 241.45139 
L 196.968497 238.806898 
L 193.790463 236.038907 
L 190.776608 233.153454 
L 187.933504 230.15694 
L 185.267522 227.055894 
L 182.784422 223.857201 
L 180.489734 220.567878 
L 178.388443 217.195193 
L 176.485211 213.746559 
L 174.784236 210.229561 
L 173.28923 206.651956 
L 172.003555 203.021598 
L 170.929937 199.346504 
L 170.070848 195.634745 
L 169.428092 191.894507 
L 169.003218 188.134015 
L 168.797042 184.36155 
L 168.810018 180.585422 
L 169.042101 176.81394 
L 169.492822 173.055414 
L 170.161267 169.318118 
L 171.04585 165.610273 
L 172.144704 161.940055 
L 173.4553 158.315523 
L 174.974873 154.744685 
L 176.699981 151.235373 
L 178.626889 147.795338 
L 180.751313 144.432133 
L 183.068575 141.153164 
L 185.57361 137.965663 
L 188.260866 134.876635 
L 191.124518 131.892928 
L 194.158151 129.021047 
L 197.355158 126.267366 
L 200.708417 123.637879 
L 204.210612 121.13843 
L 207.854003 118.774492 
L 211.630599 116.551313 
L 215.532095 114.473787 
L 219.549858 112.546427 
L 223.675077 110.773524 
L 227.898614 109.158965 
L 232.211227 107.706403 
L 236.603397 106.41878 
L 241.065502 105.298879 
L 245.587644 104.3496 
L 250.159796 103.573774 
L 254.772029 102.971857 
L 259.414494 102.542283 
L 264.076753 102.288241 
L 268.747412 102.220719 
L 273.416183 102.339893 
L 279.627086 102.725785 
L 305.946852 104.969666 
L 384.920559 111.59075 
L 394.239111 112.113668 
L 405.127755 112.480313 
L 416.024668 112.592027 
L 426.920944 112.446615 
L 437.809124 112.0573 
L 447.120083 111.470848 
L 461.088625 110.550798 
L 467.312189 110.38722 
L 473.538703 110.500596 
L 479.751692 110.885795 
L 485.932559 111.51898 
L 492.065561 112.398268 
L 498.135798 113.527928 
L 504.1278 114.905489 
L 510.025955 116.525821 
L 515.815404 118.38431 
L 521.481617 120.476552 
L 527.009619 122.797687 
L 532.384389 125.34239 
L 537.594046 128.102719 
L 542.628532 131.069167 
L 547.46929 134.238541 
L 550.957161 136.750085 
L 555.416373 140.264803 
L 559.692249 143.926015 
L 578.436526 160.761854 
L 597.243152 177.551474 
L 599.534648 179.254851 
L 601.975693 180.817085 
L 604.550386 182.232106 
L 607.245746 183.491855 
L 610.047284 184.589905 
L 612.940208 185.520375 
L 615.909214 186.278299 
L 618.938556 186.859706 
L 622.012207 187.261449 
L 625.113858 187.481553 
L 628.2271 187.518728 
L 631.335439 187.372696 
L 634.422417 187.044424 
L 637.471676 186.535556 
L 640.467063 185.848775 
L 643.392717 184.987743 
L 646.233121 183.956984 
L 648.973306 182.762071 
L 651.598635 181.409171 
L 654.095295 179.905547 
L 656.449985 178.259116 
L 658.650411 176.478718 
L 660.684633 174.573604 
L 662.542245 172.554042 
L 664.212764 170.430495 
L 665.688738 168.214681 
L 667.557012 164.755243 
L 682.25698 135.62932 
L 684.332894 132.247108 
L 686.632758 128.960573 
L 689.147212 125.777431 
L 691.860013 122.702899 
L 694.764449 119.745431 
L 697.855407 116.913962 
L 701.124346 114.216006 
L 704.561842 111.658638 
L 708.158596 109.24866 
L 711.90519 106.99268 
L 715.791478 104.896754 
L 719.807019 102.966607 
L 723.940948 101.207149 
L 728.182198 99.623075 
L 732.519349 98.219321 
L 736.940786 97.000215 
L 741.434472 95.966213 
L 745.988268 95.118286 
L 750.590332 94.468648 
L 755.228026 94.022424 
L 762.98965 93.542177 
L 797.156515 91.615845 
L 804.92775 91.235164 
L 811.160124 91.192402 
L 815.829823 91.350803 
L 820.484319 91.691246 
L 825.113413 92.217312 
L 829.706868 92.923083 
L 834.254448 93.80245 
L 838.746079 94.850882 
L 843.171977 96.066698 
L 847.522389 97.448516 
L 851.787639 98.994579 
L 855.958421 100.701274 
L 860.025544 102.564425 
L 863.979849 104.579829 
L 867.812716 106.742907 
L 871.515953 109.048775 
L 875.081381 111.49254 
L 878.500984 114.069 
L 881.767074 116.772333 
L 884.871998 119.596646 
L 887.808494 122.535901 
L 890.571432 125.583274 
L 893.15641 128.731668 
L 895.558854 131.974012 
L 897.771052 135.303656 
L 899.78254 138.71432 
L 901.582804 142.199729 
L 903.16978 145.751842 
L 904.560195 149.358693 
L 905.773316 153.007788 
L 907.146448 157.91973 
L 908.270583 162.872317 
L 909.176212 167.855147 
L 909.892243 172.858094 
L 910.42598 177.874762 
L 910.769077 182.901458 
L 910.912921 187.934531 
L 910.852807 192.969446 
L 910.589706 198.000386 
L 910.125033 203.021437 
L 909.460839 208.027166 
L 908.601119 213.013631 
L 907.550245 217.977176 
L 906.310929 222.913547 
L 904.874474 227.81438 
L 903.227375 232.669575 
L 901.359351 237.470057 
L 898.268843 244.595345 
L 894.647628 252.904027 
L 892.780175 257.704698 
L 891.138358 262.560815 
L 889.708821 267.460989 
L 888.185904 273.631318 
L 886.896038 279.8358 
L 876.920433 330.790301 
L 859.543336 419.016332 
L 858.212366 423.937698 
L 856.597982 428.804076 
L 855.19549 432.408619 
L 853.626908 435.967991 
L 851.895617 439.477806 
L 849.3408 444.073123 
L 846.512696 448.562696 
L 843.419293 452.936268 
L 840.067414 457.183402 
L 836.463839 461.293659 
L 832.616344 465.25704 
L 828.534586 469.064381 
L 824.228433 472.706614 
L 819.707995 476.174942 
L 814.984253 479.461569 
L 810.068385 482.558926 
L 804.971695 485.459488 
L 799.706393 488.156071 
L 794.285083 490.641639 
L 788.720412 492.909334 
L 783.025625 494.955167 
L 777.21446 496.777484 
L 771.30067 498.374606 
L 765.298101 499.740108 
L 759.220737 500.860597 
L 753.082577 501.722139 
L 746.898149 502.323684 
L 740.683471 502.700065 
L 732.897367 502.91644 
L 721.999478 502.922756 
L 700.204493 502.904435 
L 447.999787 502.902289 
L 258.066899 502.810162 
L 253.40519 502.532154 
L 248.771011 502.046484 
L 244.181435 501.332724 
L 239.651623 500.396898 
L 235.196378 499.249914 
L 230.830458 497.899346 
L 226.568557 496.348231 
L 222.425297 494.599514 
L 218.414531 492.658762 
L 214.549633 490.533192 
L 210.843769 488.230178 
L 207.309234 485.757661 
L 203.958078 483.123746 
L 200.801686 480.33706 
L 197.850189 477.407214 
L 195.113556 474.343962 
L 192.601306 471.157623 
L 190.322575 467.85901 
L 188.285832 464.459056 
L 186.495366 460.969342 
L 184.953819 457.401711 
L 183.667179 453.768048 
L 182.650365 450.080356 
L 181.918971 446.350683 
L 181.461423 442.591985 
L 181.232976 438.818326 
L 181.187342 433.784593 
L 181.204834 417.427584 
L 181.268682 363.322419 
L 181.538958 359.552823 
L 182.050906 355.79997 
L 182.81316 352.074273 
L 183.813515 348.385451 
L 185.046368 344.743329 
L 186.511188 341.157807 
L 188.204818 337.638535 
L 190.121948 334.194958 
L 192.257172 330.836324 
L 194.605008 327.571706 
L 197.159194 324.409875 
L 199.912777 321.359327 
L 202.858318 318.428256 
L 205.987937 315.624571 
L 209.293232 312.955816 
L 212.765301 310.429178 
L 216.394797 308.051442 
L 220.17193 305.828982 
L 224.086554 303.767786 
L 228.128149 301.873426 
L 232.285856 300.151002 
L 236.548451 298.605099 
L 240.904479 297.239882 
L 245.342225 296.059052 
L 249.849774 295.065811 
L 254.414973 294.262785 
L 259.02555 293.652151 
L 263.669094 293.235552 
L 268.333125 293.014136 
L 273.005086 292.988433 
L 277.672414 293.158539 
L 282.322546 293.523993 
L 286.942975 294.083866 
L 291.52128 294.836583 
L 296.045134 295.780158 
L 300.502363 296.912039 
L 304.880967 298.22923 
L 309.169214 299.72808 
L 313.355555 301.404592 
L 317.428704 303.254271 
L 321.377663 305.272222 
L 325.191903 307.452908 
L 328.861123 309.790497 
L 332.375375 312.278712 
L 335.725175 314.910921 
L 338.901897 317.679878 
L 341.896832 320.578197 
L 344.700875 323.598344 
L 347.306831 326.73213 
L 349.711872 329.969942 
L 351.90814 333.303482 
L 353.874639 336.727967 
L 355.609845 340.233131 
L 357.655778 344.98814 
L 374.582138 386.846335 
L 375.840952 389.14796 
L 377.281848 391.378564 
L 378.900569 393.528079 
L 380.689989 395.587295 
L 382.642362 397.547416 
L 384.7493 399.400043 
L 387.001818 401.137185 
L 389.390222 402.751408 
L 391.904219 404.235832 
L 394.533082 405.584032 
L 397.265541 406.790194 
L 400.089842 407.849186 
L 402.993843 408.756512 
L 405.965149 409.508127 
L 408.990946 410.100973 
L 412.058282 410.532397 
L 415.153978 410.800679 
L 418.26476 410.904501 
L 421.377287 410.84358 
L 424.478176 410.617928 
L 427.554227 410.228968 
L 430.5919 409.677489 
L 433.578286 408.966235 
L 445.358042 405.690298 
L 451.340768 404.293641 
L 457.398951 403.123184 
L 463.51799 402.172791 
L 469.680681 401.430512 
L 475.874746 400.894892 
L 482.090849 400.57075 
L 488.318952 400.461243 
L 494.547468 400.565885 
L 500.764696 400.883719 
L 506.959651 401.413659 
L 513.121706 402.15456 
L 519.239642 403.105597 
L 525.301177 404.266522 
L 531.29454 405.636346 
L 537.212375 407.208333 
L 543.049095 408.973436 
L 548.790081 410.933668 
L 554.406952 413.107887 
L 559.880063 415.504067 
L 567.916055 419.359288 
L 574.613441 422.570721 
L 578.743874 424.3289 
L 582.997149 425.891853 
L 587.346217 427.276692 
L 591.768832 428.494654 
L 596.258019 429.538151 
L 600.806653 430.399941 
L 605.402971 431.078928 
L 610.03474 431.574784 
L 614.690828 431.886297 
L 619.360301 432.01222 
L 624.031866 431.952326 
L 628.69412 431.706801 
L 633.335774 431.276311 
L 637.945605 430.661806 
L 642.512475 429.864798 
L 647.025315 428.887214 
L 651.473202 427.731417 
L 655.845358 426.400198 
L 660.131194 424.896748 
L 664.320375 423.224787 
L 668.402741 421.388326 
L 672.368451 419.391866 
L 676.207849 417.240155 
L 679.911705 414.938473 
L 683.470981 412.492314 
L 686.877112 409.90765 
L 690.121755 407.190658 
L 693.197161 404.347991 
L 696.09586 401.386518 
L 698.810887 398.313433 
L 701.335594 395.136132 
L 703.663892 391.862311 
L 705.790143 388.499901 
L 707.709198 385.057034 
L 709.416429 381.542056 
L 710.90766 377.963456 
L 712.179366 374.329922 
L 713.228393 370.650227 
L 714.052273 366.933295 
L 714.648889 363.188102 
L 715.016929 359.423728 
L 715.155408 355.64928 
L 715.064106 351.873894 
L 714.743137 348.106708 
L 714.193356 344.356835 
L 713.415997 340.633363 
L 712.413003 336.945293 
L 711.186767 333.301565 
L 709.740293 329.710984 
L 708.077099 326.182242 
L 706.201187 322.72388 
L 704.11711 319.344261 
L 701.829841 316.051596 
L 699.34498 312.853854 
L 696.668479 309.758799 
L 693.806959 306.773763 
L 690.767263 303.906019 
L 687.556652 301.162825 
L 684.18273 298.551054 
L 680.654328 296.075707 
L 676.980394 293.741843 
L 673.168028 291.559061 
L 667.899832 288.875665 
L 661.155929 285.730563 
L 654.270234 282.788583 
L 647.260664 280.043004 
L 640.141116 277.491606 
L 632.918459 275.140049 
L 625.598863 272.994754 
L 618.189798 271.059443 
L 610.701007 269.333104 
L 603.142454 267.814301 
L 595.523596 266.506379 
L 587.853002 265.42107 
L 580.139161 264.570738 
L 572.391767 263.949695 
L 563.067212 263.454563 
L 553.731093 263.181382 
L 542.83341 263.178834 
L 444.753852 263.174858 
L 444.753852 263.174858 
" style="fill:none;stroke:#000000;stroke-dasharray:1.5,2.475;stroke-dashoffset:0;stroke-width:1.5;"/>
   </g>
   <g id="line2d_18">
    <path clip-path="url(#p73582e740d)" d="M 437.887258 255.625331 
L 265.079908 255.561671 
L 260.416522 255.33815 
L 255.774493 254.917853 
L 251.166515 254.292168 
L 246.604596 253.474834 
L 242.100867 252.470982 
L 237.667523 251.280028 
L 233.316454 249.904348 
L 229.059316 248.348473 
L 224.90749 246.616849 
L 220.872128 244.713871 
L 216.964041 242.644574 
L 213.193744 240.414532 
L 209.571324 238.029757 
L 206.10649 235.496641 
L 202.808504 232.821985 
L 199.686216 230.012959 
L 196.748002 227.077084 
L 194.001775 224.022217 
L 191.454893 220.856542 
L 189.114158 217.588569 
L 186.985833 214.22706 
L 185.075623 210.78103 
L 183.388668 207.259704 
L 181.92948 203.672532 
L 180.701989 200.029119 
L 179.709449 196.339246 
L 178.954561 192.612793 
L 178.43936 188.859759 
L 178.165257 185.090196 
L 178.132873 181.31422 
L 178.342321 177.541948 
L 178.793067 173.7835 
L 179.483984 170.04895 
L 180.413126 166.348308 
L 181.578033 162.691498 
L 182.975535 159.088317 
L 184.601953 155.548436 
L 186.452858 152.081329 
L 188.523347 148.696307 
L 190.807795 145.402419 
L 193.300152 142.208522 
L 195.993695 139.123165 
L 198.881285 136.154662 
L 201.955083 133.310917 
L 205.206898 130.599585 
L 208.627944 128.027882 
L 212.209125 125.602758 
L 215.940795 123.330688 
L 219.813022 121.217832 
L 223.81535 119.269754 
L 227.937088 117.49173 
L 232.167132 115.888524 
L 236.494196 114.464505 
L 240.906662 113.223173 
L 245.392739 112.16795 
L 249.940273 111.302483 
L 254.537099 110.629193 
L 259.171222 110.146484 
L 263.830263 109.855449 
L 268.500411 109.769057 
L 273.168953 109.889569 
L 279.378221 110.291811 
L 336.66325 115.169801 
L 384.672481 119.149031 
L 393.991743 119.663808 
L 404.880577 120.027206 
L 415.777473 120.14194 
L 426.673871 120.005234 
L 437.563115 119.632393 
L 446.876134 119.067763 
L 460.842179 118.123654 
L 467.064865 117.938491 
L 471.735116 117.993272 
L 477.952053 118.328607 
L 484.137187 118.935233 
L 490.271625 119.807487 
L 496.337928 120.950568 
L 502.317969 122.361419 
L 508.193563 124.034005 
L 513.947494 125.963017 
L 519.562644 128.143205 
L 525.021229 130.568746 
L 530.306946 133.232334 
L 535.408102 136.122828 
L 539.103356 138.434696 
L 542.672757 140.871003 
L 546.104921 143.431779 
L 550.486787 147.01016 
L 555.736047 151.656584 
L 576.562182 170.363668 
L 590.147462 182.487874 
L 592.390283 184.232988 
L 594.765768 185.860519 
L 597.254849 187.37244 
L 599.851757 188.761096 
L 602.546606 190.021915 
L 605.329763 191.150481 
L 608.191332 192.142732 
L 611.12111 192.995085 
L 614.108637 193.704524 
L 617.143245 194.268515 
L 620.214118 194.684999 
L 623.310272 194.952598 
L 626.420672 195.070339 
L 629.534216 195.037656 
L 632.63979 194.854748 
L 635.726318 194.522353 
L 638.782781 194.04159 
L 641.79826 193.414144 
L 644.762009 192.642306 
L 647.663434 191.728788 
L 650.492178 190.676859 
L 653.238204 189.490352 
L 655.891638 188.173407 
L 658.442993 186.73069 
L 660.883261 185.16748 
L 663.203612 183.489226 
L 665.395961 181.702078 
L 667.452206 179.812236 
L 669.365377 177.82659 
L 671.127848 175.751995 
L 672.735316 173.596472 
L 674.178786 171.366641 
L 676.0525 167.909014 
L 685.374841 149.240063 
L 690.098885 139.92585 
L 692.111894 136.518751 
L 694.369761 133.213673 
L 696.870639 130.023669 
L 699.592957 126.954768 
L 702.528364 124.017505 
L 705.670054 121.222807 
L 709.006786 118.579769 
L 712.52683 116.097042 
L 716.218625 113.782997 
L 720.069904 111.645444 
L 724.067728 109.691619 
L 728.198654 107.927784 
L 732.448898 106.359786 
L 736.804243 104.993851 
L 741.250131 103.834423 
L 745.77143 102.880988 
L 750.3532 102.140675 
L 754.980689 101.630719 
L 761.186288 101.20699 
L 807.791482 98.732067 
L 812.465663 98.773041 
L 817.13014 99.002765 
L 821.772708 99.438492 
L 826.380917 100.07634 
L 830.942267 100.908187 
L 835.444378 101.927173 
L 839.875285 103.130828 
L 844.223114 104.51764 
L 848.476108 106.08547 
L 852.622963 107.829765 
L 856.652484 109.745395 
L 860.553672 111.827099 
L 864.316357 114.069073 
L 867.930587 116.46537 
L 871.386496 119.009868 
L 874.674609 121.695634 
L 877.785572 124.5155 
L 880.710562 127.462102 
L 883.443501 130.527078 
L 885.979185 133.701748 
L 888.311452 136.977569 
L 890.428722 140.346773 
L 892.317519 143.801867 
L 893.96847 147.334501 
L 895.397436 150.931097 
L 896.629855 154.576085 
L 898.008782 159.487078 
L 899.122983 164.441083 
L 900.008448 169.426314 
L 900.697799 174.431567 
L 901.195284 179.45045 
L 901.490892 184.478989 
L 901.575032 189.513115 
L 901.444746 194.5473 
L 901.101626 199.575013 
L 900.547433 204.589773 
L 899.785537 209.586365 
L 898.820783 214.560738 
L 897.657818 219.508792 
L 896.292586 224.423311 
L 894.710325 229.293244 
L 892.896307 234.10752 
L 890.36114 240.055788 
L 885.210731 251.931356 
L 883.399735 256.746566 
L 881.802496 261.612708 
L 880.404105 266.518639 
L 878.90339 272.692506 
L 877.382646 280.141401 
L 870.569424 314.939521 
L 850.25134 418.076382 
L 849.250755 421.767192 
L 848.079441 425.425495 
L 846.73207 429.043734 
L 845.204951 432.614784 
L 843.501062 436.13328 
L 841.625075 439.594302 
L 839.581665 442.992931 
L 837.375264 446.324213 
L 835.009377 449.583046 
L 832.487279 452.764296 
L 829.812245 455.862826 
L 826.987831 458.873623 
L 824.018645 461.792128 
L 819.842922 465.532208 
L 815.430008 469.089791 
L 810.792185 472.455233 
L 805.942429 475.619708 
L 800.893785 478.574435 
L 795.660125 481.310907 
L 790.256085 483.820872 
L 784.696366 486.096259 
L 778.99635 488.132337 
L 773.172037 489.927373 
L 767.239452 491.479314 
L 761.214742 492.778228 
L 755.114161 493.807235 
L 748.954043 494.551214 
L 742.752057 495.029881 
L 736.527006 495.292571 
L 728.740158 495.395775 
L 367.559283 495.352758 
L 258.580865 495.271674 
L 253.920112 494.985562 
L 249.292825 494.462023 
L 244.720295 493.679063 
L 240.221624 492.648735 
L 235.815694 491.384977 
L 231.521343 489.893617 
L 227.357359 488.177904 
L 223.341687 486.244108 
L 219.491443 484.101469 
L 215.823332 481.759575 
L 212.352982 479.228648 
L 209.095665 476.519152 
L 206.065041 473.642819 
L 203.273862 470.612097 
L 200.734526 467.439951 
L 198.458881 464.140154 
L 196.457523 460.726729 
L 194.735133 457.214583 
L 193.295091 453.618899 
L 192.150852 449.954939 
L 191.325006 446.238037 
L 190.818294 442.484188 
L 190.574032 438.711082 
L 190.528303 433.677209 
L 190.545488 418.57849 
L 190.621041 363.215121 
L 190.927809 359.447599 
L 191.510296 355.701483 
L 192.368521 351.989347 
L 193.48805 348.323293 
L 194.866511 344.715641 
L 196.501857 341.17856 
L 198.387773 337.723841 
L 200.517488 334.363038 
L 202.884185 331.107448 
L 205.479975 327.967948 
L 208.2961 324.955059 
L 211.323071 322.078832 
L 214.550873 319.348968 
L 217.96863 316.774562 
L 221.564939 314.364275 
L 225.327694 312.126114 
L 229.244321 310.067595 
L 233.301728 308.195654 
L 237.486316 306.516524 
L 241.784061 305.035818 
L 246.180557 303.75846 
L 250.661134 302.688843 
L 255.210754 301.830452 
L 259.814193 301.186207 
L 264.456025 300.75824 
L 269.120721 300.548023 
L 273.792651 300.5562 
L 278.456177 300.782736 
L 283.095672 301.226952 
L 287.695617 301.887299 
L 292.240596 302.761605 
L 296.715397 303.846898 
L 301.105004 305.139637 
L 305.394785 306.635357 
L 309.570364 308.329078 
L 313.617704 310.21519 
L 317.523269 312.287392 
L 321.274033 314.538686 
L 324.857389 316.961534 
L 328.261174 319.547939 
L 331.474396 322.289076 
L 334.486295 325.17577 
L 337.285484 328.198695 
L 339.863388 331.347539 
L 342.216708 334.610251 
L 344.330232 337.97795 
L 346.178964 341.444351 
L 347.799454 344.986022 
L 350.222307 350.965043 
L 359.358625 373.702863 
L 365.705446 389.233929 
L 366.919474 391.551319 
L 368.287444 393.81187 
L 369.806718 396.008458 
L 371.472337 398.134588 
L 373.27952 400.183814 
L 375.222737 402.150043 
L 377.29616 404.027389 
L 379.49361 405.810201 
L 381.808517 407.493114 
L 384.233879 409.071148 
L 388.063093 411.231235 
L 392.098682 413.13011 
L 396.313442 414.754958 
L 400.678899 416.094921 
L 405.165698 417.140793 
L 409.743517 417.885704 
L 414.381519 418.324587 
L 419.048433 418.454402 
L 423.712794 418.274358 
L 428.343193 417.78573 
L 432.908131 416.991189 
L 435.900803 416.296145 
L 452.154509 411.937576 
L 458.194679 410.710848 
L 464.30471 409.724224 
L 470.463764 408.961278 
L 476.656771 408.418032 
L 482.873263 408.10043 
L 489.101855 408.012232 
L 495.329245 408.15268 
L 501.542135 408.520526 
L 507.728179 409.114485 
L 513.875207 409.933312 
L 519.969864 410.976425 
L 525.998021 412.243628 
L 531.948559 413.730776 
L 537.815109 415.427499 
L 543.586735 417.329036 
L 549.233295 419.454336 
L 554.726383 421.820116 
L 561.436136 425.012975 
L 570.817541 429.501623 
L 574.962305 431.23833 
L 579.218013 432.797498 
L 583.561336 434.194361 
L 589.45724 435.819921 
L 593.949951 436.853708 
L 598.496763 437.721974 
L 603.087882 438.423853 
L 607.713086 438.959111 
L 612.363006 439.326856 
L 617.028615 439.525944 
L 621.700676 439.555835 
L 626.369736 439.416606 
L 631.02637 439.108526 
L 635.661256 438.632284 
L 640.265095 437.988714 
L 644.828673 437.179176 
L 649.342815 436.205273 
L 653.798461 435.068949 
L 658.186675 433.772513 
L 662.498622 432.318483 
L 666.725705 430.709889 
L 670.859407 428.9499 
L 674.89148 427.042109 
L 678.813803 424.990307 
L 682.618505 422.798594 
L 686.297985 420.471408 
L 689.844796 418.01335 
L 693.251878 415.429409 
L 696.512298 412.724692 
L 699.619598 409.904686 
L 702.567546 406.975057 
L 705.350228 403.941679 
L 707.962085 400.810654 
L 710.397776 397.588204 
L 712.652518 394.280848 
L 714.721699 390.895187 
L 716.601239 387.438039 
L 718.287327 383.916332 
L 719.776569 380.337122 
L 721.066054 376.707615 
L 722.153101 373.035069 
L 723.03563 369.326874 
L 723.711742 365.590451 
L 724.180167 361.833303 
L 724.439953 358.062973 
L 724.490566 354.287021 
L 724.331975 350.513026 
L 723.964387 346.748558 
L 723.388645 343.001165 
L 722.605786 339.27838 
L 721.617453 335.587659 
L 720.425612 331.936415 
L 719.032635 328.331975 
L 717.441404 324.781553 
L 715.655013 321.292296 
L 713.677142 317.87117 
L 711.511645 314.52508 
L 709.162921 311.260725 
L 706.635666 308.084691 
L 703.934939 305.003329 
L 701.06627 302.022694 
L 698.035331 299.148814 
L 694.848155 296.387691 
L 691.510947 293.74518 
L 688.030787 291.225776 
L 684.415217 288.83328 
L 680.670911 286.573778 
L 676.80337 284.456417 
L 671.499634 281.818663 
L 664.732801 278.705075 
L 657.832357 275.785319 
L 650.814577 273.053523 
L 643.691652 270.508351 
L 636.469783 268.155124 
L 629.154696 265.999683 
L 621.753153 264.045722 
L 614.274055 262.29251 
L 606.726567 260.738771 
L 599.119558 259.386029 
L 591.461025 258.244055 
L 583.758806 257.324127 
L 576.021231 256.630173 
L 566.704231 256.05591 
L 557.370353 255.705194 
L 549.587926 255.61145 
L 505.996724 255.625329 
L 445.280763 255.625331 
L 445.280763 255.625331 
" style="fill:none;stroke:#000000;stroke-dasharray:1.5,2.475;stroke-dashoffset:0;stroke-width:1.5;"/>
   </g>
   <g id="patch_3">
    <path d="M 131.67 523.5336 
L 131.67 70.5888 
" style="fill:none;stroke:#000000;stroke-linecap:square;stroke-linejoin:miter;stroke-width:0.8;"/>
   </g>
   <g id="patch_4">
    <path d="M 948.024 523.5336 
L 948.024 70.5888 
" style="fill:none;stroke:#000000;stroke-linecap:square;stroke-linejoin:miter;stroke-width:0.8;"/>
   </g>
   <g id="patch_5">
    <path d="M 131.67 523.5336 
L 948.024 523.5336 
" style="fill:none;stroke:#000000;stroke-linecap:square;stroke-linejoin:miter;stroke-width:0.8;"/>
   </g>
   <g id="patch_6">
    <path d="M 131.67 70.5888 
L 948.024 70.5888 
" style="fill:none;stroke:#000000;stroke-linecap:square;stroke-linejoin:miter;stroke-width:0.8;"/>
   </g>
   <g id="legend_1">
    <g id="patch_7">
     <path d="M 861.283375 518.5336 
L 941.024 518.5336 
Q 943.024 518.5336 943.024 516.5336 
L 943.024 473.2211 
Q 943.024 471.2211 941.024 471.2211 
L 861.283375 471.2211 
Q 859.283375 471.2211 859.283375 473.2211 
L 859.283375 516.5336 
Q 859.283375 518.5336 861.283375 518.5336 
z
" style="fill:#ffffff;opacity:0.8;stroke:#cccccc;stroke-linejoin:miter;"/>
    </g>
    <g id="line2d_19">
     <path d="M 863.283375 479.319538 
L 883.283375 479.319538 
" style="fill:none;stroke:#ff0000;stroke-linecap:square;stroke-width:1.5;"/>
    </g>
    <g id="line2d_20"/>
    <g id="text_14">
     <!-- max_cur -->
     <defs>
      <path d="M 52 44.1875 
Q 55.375 50.25 60.0625 53.125 
Q 64.75 56 71.09375 56 
Q 79.640625 56 84.28125 50.015625 
Q 88.921875 44.046875 88.921875 33.015625 
L 88.921875 0 
L 79.890625 0 
L 79.890625 32.71875 
Q 79.890625 40.578125 77.09375 44.375 
Q 74.3125 48.1875 68.609375 48.1875 
Q 61.625 48.1875 57.5625 43.546875 
Q 53.515625 38.921875 53.515625 30.90625 
L 53.515625 0 
L 44.484375 0 
L 44.484375 32.71875 
Q 44.484375 40.625 41.703125 44.40625 
Q 38.921875 48.1875 33.109375 48.1875 
Q 26.21875 48.1875 22.15625 43.53125 
Q 18.109375 38.875 18.109375 30.90625 
L 18.109375 0 
L 9.078125 0 
L 9.078125 54.6875 
L 18.109375 54.6875 
L 18.109375 46.1875 
Q 21.1875 51.21875 25.484375 53.609375 
Q 29.78125 56 35.6875 56 
Q 41.65625 56 45.828125 52.96875 
Q 50 49.953125 52 44.1875 
z
" id="DejaVuSans-109"/>
      <path d="M 34.28125 27.484375 
Q 23.390625 27.484375 19.1875 25 
Q 14.984375 22.515625 14.984375 16.5 
Q 14.984375 11.71875 18.140625 8.90625 
Q 21.296875 6.109375 26.703125 6.109375 
Q 34.1875 6.109375 38.703125 11.40625 
Q 43.21875 16.703125 43.21875 25.484375 
L 43.21875 27.484375 
z
M 52.203125 31.203125 
L 52.203125 0 
L 43.21875 0 
L 43.21875 8.296875 
Q 40.140625 3.328125 35.546875 0.953125 
Q 30.953125 -1.421875 24.3125 -1.421875 
Q 15.921875 -1.421875 10.953125 3.296875 
Q 6 8.015625 6 15.921875 
Q 6 25.140625 12.171875 29.828125 
Q 18.359375 34.515625 30.609375 34.515625 
L 43.21875 34.515625 
L 43.21875 35.40625 
Q 43.21875 41.609375 39.140625 45 
Q 35.0625 48.390625 27.6875 48.390625 
Q 23 48.390625 18.546875 47.265625 
Q 14.109375 46.140625 10.015625 43.890625 
L 10.015625 52.203125 
Q 14.9375 54.109375 19.578125 55.046875 
Q 24.21875 56 28.609375 56 
Q 40.484375 56 46.34375 49.84375 
Q 52.203125 43.703125 52.203125 31.203125 
z
" id="DejaVuSans-97"/>
      <path d="M 54.890625 54.6875 
L 35.109375 28.078125 
L 55.90625 0 
L 45.3125 0 
L 29.390625 21.484375 
L 13.484375 0 
L 2.875 0 
L 24.125 28.609375 
L 4.6875 54.6875 
L 15.28125 54.6875 
L 29.78125 35.203125 
L 44.28125 54.6875 
z
" id="DejaVuSans-120"/>
      <path d="M 50.984375 -16.609375 
L 50.984375 -23.578125 
L -0.984375 -23.578125 
L -0.984375 -16.609375 
z
" id="DejaVuSans-95"/>
      <path d="M 48.78125 52.59375 
L 48.78125 44.1875 
Q 44.96875 46.296875 41.140625 47.34375 
Q 37.3125 48.390625 33.40625 48.390625 
Q 24.65625 48.390625 19.8125 42.84375 
Q 14.984375 37.3125 14.984375 27.296875 
Q 14.984375 17.28125 19.8125 11.734375 
Q 24.65625 6.203125 33.40625 6.203125 
Q 37.3125 6.203125 41.140625 7.25 
Q 44.96875 8.296875 48.78125 10.40625 
L 48.78125 2.09375 
Q 45.015625 0.34375 40.984375 -0.53125 
Q 36.96875 -1.421875 32.421875 -1.421875 
Q 20.0625 -1.421875 12.78125 6.34375 
Q 5.515625 14.109375 5.515625 27.296875 
Q 5.515625 40.671875 12.859375 48.328125 
Q 20.21875 56 33.015625 56 
Q 37.15625 56 41.109375 55.140625 
Q 45.0625 54.296875 48.78125 52.59375 
z
" id="DejaVuSans-99"/>
      <path d="M 8.5 21.578125 
L 8.5 54.6875 
L 17.484375 54.6875 
L 17.484375 21.921875 
Q 17.484375 14.15625 20.5 10.265625 
Q 23.53125 6.390625 29.59375 6.390625 
Q 36.859375 6.390625 41.078125 11.03125 
Q 45.3125 15.671875 45.3125 23.6875 
L 45.3125 54.6875 
L 54.296875 54.6875 
L 54.296875 0 
L 45.3125 0 
L 45.3125 8.40625 
Q 42.046875 3.421875 37.71875 1 
Q 33.40625 -1.421875 27.6875 -1.421875 
Q 18.265625 -1.421875 13.375 4.4375 
Q 8.5 10.296875 8.5 21.578125 
z
M 31.109375 56 
z
" id="DejaVuSans-117"/>
      <path d="M 41.109375 46.296875 
Q 39.59375 47.171875 37.8125 47.578125 
Q 36.03125 48 33.890625 48 
Q 26.265625 48 22.1875 43.046875 
Q 18.109375 38.09375 18.109375 28.8125 
L 18.109375 0 
L 9.078125 0 
L 9.078125 54.6875 
L 18.109375 54.6875 
L 18.109375 46.1875 
Q 20.953125 51.171875 25.484375 53.578125 
Q 30.03125 56 36.53125 56 
Q 37.453125 56 38.578125 55.875 
Q 39.703125 55.765625 41.0625 55.515625 
z
" id="DejaVuSans-114"/>
     </defs>
     <g transform="translate(891.283375 482.819538)scale(0.1 -0.1)">
      <use xlink:href="#DejaVuSans-109"/>
      <use x="97.412109" xlink:href="#DejaVuSans-97"/>
      <use x="158.691406" xlink:href="#DejaVuSans-120"/>
      <use x="217.871094" xlink:href="#DejaVuSans-95"/>
      <use x="267.871094" xlink:href="#DejaVuSans-99"/>
      <use x="322.851562" xlink:href="#DejaVuSans-117"/>
      <use x="386.230469" xlink:href="#DejaVuSans-114"/>
     </g>
    </g>
    <g id="line2d_21">
     <path d="M 863.283375 494.275788 
L 883.283375 494.275788 
" style="fill:none;stroke:#0000ff;stroke-linecap:square;stroke-width:1.5;"/>
    </g>
    <g id="line2d_22"/>
    <g id="text_15">
     <!-- reference -->
     <defs>
      <path d="M 56.203125 29.59375 
L 56.203125 25.203125 
L 14.890625 25.203125 
Q 15.484375 15.921875 20.484375 11.0625 
Q 25.484375 6.203125 34.421875 6.203125 
Q 39.59375 6.203125 44.453125 7.46875 
Q 49.3125 8.734375 54.109375 11.28125 
L 54.109375 2.78125 
Q 49.265625 0.734375 44.1875 -0.34375 
Q 39.109375 -1.421875 33.890625 -1.421875 
Q 20.796875 -1.421875 13.15625 6.1875 
Q 5.515625 13.8125 5.515625 26.8125 
Q 5.515625 40.234375 12.765625 48.109375 
Q 20.015625 56 32.328125 56 
Q 43.359375 56 49.78125 48.890625 
Q 56.203125 41.796875 56.203125 29.59375 
z
M 47.21875 32.234375 
Q 47.125 39.59375 43.09375 43.984375 
Q 39.0625 48.390625 32.421875 48.390625 
Q 24.90625 48.390625 20.390625 44.140625 
Q 15.875 39.890625 15.1875 32.171875 
z
" id="DejaVuSans-101"/>
      <path d="M 37.109375 75.984375 
L 37.109375 68.5 
L 28.515625 68.5 
Q 23.6875 68.5 21.796875 66.546875 
Q 19.921875 64.59375 19.921875 59.515625 
L 19.921875 54.6875 
L 34.71875 54.6875 
L 34.71875 47.703125 
L 19.921875 47.703125 
L 19.921875 0 
L 10.890625 0 
L 10.890625 47.703125 
L 2.296875 47.703125 
L 2.296875 54.6875 
L 10.890625 54.6875 
L 10.890625 58.5 
Q 10.890625 67.625 15.140625 71.796875 
Q 19.390625 75.984375 28.609375 75.984375 
z
" id="DejaVuSans-102"/>
      <path d="M 54.890625 33.015625 
L 54.890625 0 
L 45.90625 0 
L 45.90625 32.71875 
Q 45.90625 40.484375 42.875 44.328125 
Q 39.84375 48.1875 33.796875 48.1875 
Q 26.515625 48.1875 22.3125 43.546875 
Q 18.109375 38.921875 18.109375 30.90625 
L 18.109375 0 
L 9.078125 0 
L 9.078125 54.6875 
L 18.109375 54.6875 
L 18.109375 46.1875 
Q 21.34375 51.125 25.703125 53.5625 
Q 30.078125 56 35.796875 56 
Q 45.21875 56 50.046875 50.171875 
Q 54.890625 44.34375 54.890625 33.015625 
z
" id="DejaVuSans-110"/>
     </defs>
     <g transform="translate(891.283375 497.775788)scale(0.1 -0.1)">
      <use xlink:href="#DejaVuSans-114"/>
      <use x="38.863281" xlink:href="#DejaVuSans-101"/>
      <use x="100.386719" xlink:href="#DejaVuSans-102"/>
      <use x="135.591797" xlink:href="#DejaVuSans-101"/>
      <use x="197.115234" xlink:href="#DejaVuSans-114"/>
      <use x="235.978516" xlink:href="#DejaVuSans-101"/>
      <use x="297.501953" xlink:href="#DejaVuSans-110"/>
      <use x="360.880859" xlink:href="#DejaVuSans-99"/>
      <use x="415.861328" xlink:href="#DejaVuSans-101"/>
     </g>
    </g>
    <g id="line2d_23">
     <path d="M 863.283375 508.953913 
L 883.283375 508.953913 
" style="fill:none;stroke:#008000;stroke-linecap:square;stroke-width:1.5;"/>
    </g>
    <g id="line2d_24"/>
    <g id="text_16">
     <!-- shortest -->
     <defs>
      <path d="M 44.28125 53.078125 
L 44.28125 44.578125 
Q 40.484375 46.53125 36.375 47.5 
Q 32.28125 48.484375 27.875 48.484375 
Q 21.1875 48.484375 17.84375 46.4375 
Q 14.5 44.390625 14.5 40.28125 
Q 14.5 37.15625 16.890625 35.375 
Q 19.28125 33.59375 26.515625 31.984375 
L 29.59375 31.296875 
Q 39.15625 29.25 43.1875 25.515625 
Q 47.21875 21.78125 47.21875 15.09375 
Q 47.21875 7.46875 41.1875 3.015625 
Q 35.15625 -1.421875 24.609375 -1.421875 
Q 20.21875 -1.421875 15.453125 -0.5625 
Q 10.6875 0.296875 5.421875 2 
L 5.421875 11.28125 
Q 10.40625 8.6875 15.234375 7.390625 
Q 20.0625 6.109375 24.8125 6.109375 
Q 31.15625 6.109375 34.5625 8.28125 
Q 37.984375 10.453125 37.984375 14.40625 
Q 37.984375 18.0625 35.515625 20.015625 
Q 33.0625 21.96875 24.703125 23.78125 
L 21.578125 24.515625 
Q 13.234375 26.265625 9.515625 29.90625 
Q 5.8125 33.546875 5.8125 39.890625 
Q 5.8125 47.609375 11.28125 51.796875 
Q 16.75 56 26.8125 56 
Q 31.78125 56 36.171875 55.265625 
Q 40.578125 54.546875 44.28125 53.078125 
z
" id="DejaVuSans-115"/>
      <path d="M 54.890625 33.015625 
L 54.890625 0 
L 45.90625 0 
L 45.90625 32.71875 
Q 45.90625 40.484375 42.875 44.328125 
Q 39.84375 48.1875 33.796875 48.1875 
Q 26.515625 48.1875 22.3125 43.546875 
Q 18.109375 38.921875 18.109375 30.90625 
L 18.109375 0 
L 9.078125 0 
L 9.078125 75.984375 
L 18.109375 75.984375 
L 18.109375 46.1875 
Q 21.34375 51.125 25.703125 53.5625 
Q 30.078125 56 35.796875 56 
Q 45.21875 56 50.046875 50.171875 
Q 54.890625 44.34375 54.890625 33.015625 
z
" id="DejaVuSans-104"/>
      <path d="M 30.609375 48.390625 
Q 23.390625 48.390625 19.1875 42.75 
Q 14.984375 37.109375 14.984375 27.296875 
Q 14.984375 17.484375 19.15625 11.84375 
Q 23.34375 6.203125 30.609375 6.203125 
Q 37.796875 6.203125 41.984375 11.859375 
Q 46.1875 17.53125 46.1875 27.296875 
Q 46.1875 37.015625 41.984375 42.703125 
Q 37.796875 48.390625 30.609375 48.390625 
z
M 30.609375 56 
Q 42.328125 56 49.015625 48.375 
Q 55.71875 40.765625 55.71875 27.296875 
Q 55.71875 13.875 49.015625 6.21875 
Q 42.328125 -1.421875 30.609375 -1.421875 
Q 18.84375 -1.421875 12.171875 6.21875 
Q 5.515625 13.875 5.515625 27.296875 
Q 5.515625 40.765625 12.171875 48.375 
Q 18.84375 56 30.609375 56 
z
" id="DejaVuSans-111"/>
      <path d="M 18.3125 70.21875 
L 18.3125 54.6875 
L 36.8125 54.6875 
L 36.8125 47.703125 
L 18.3125 47.703125 
L 18.3125 18.015625 
Q 18.3125 11.328125 20.140625 9.421875 
Q 21.96875 7.515625 27.59375 7.515625 
L 36.8125 7.515625 
L 36.8125 0 
L 27.59375 0 
Q 17.1875 0 13.234375 3.875 
Q 9.28125 7.765625 9.28125 18.015625 
L 9.28125 47.703125 
L 2.6875 47.703125 
L 2.6875 54.6875 
L 9.28125 54.6875 
L 9.28125 70.21875 
z
" id="DejaVuSans-116"/>
     </defs>
     <g transform="translate(891.283375 512.453913)scale(0.1 -0.1)">
      <use xlink:href="#DejaVuSans-115"/>
      <use x="52.099609" xlink:href="#DejaVuSans-104"/>
      <use x="115.478516" xlink:href="#DejaVuSans-111"/>
      <use x="176.660156" xlink:href="#DejaVuSans-114"/>
      <use x="217.773438" xlink:href="#DejaVuSans-116"/>
      <use x="256.982422" xlink:href="#DejaVuSans-101"/>
      <use x="318.505859" xlink:href="#DejaVuSans-115"/>
      <use x="370.605469" xlink:href="#DejaVuSans-116"/>
     </g>
    </g>
   </g>
  </g>
 </g>
 <defs>
  <clipPath id="p73582e740d">
   <rect height="452.9448" width="816.354" x="131.67" y="70.5888"/>
  </clipPath>
 </defs>
</svg>
